<svg xmlns="http://www.w3.org/2000/svg" width="27.886" height="33.185" viewBox="0 0 27.886 33.185">
  <path id="Icon_awesome-apple" data-name="Icon awesome-apple" d="M23.6,19.786A6.916,6.916,0,0,1,27.3,13.5a7.96,7.96,0,0,0-6.275-3.3c-2.63-.207-5.5,1.534-6.557,1.534-1.111,0-3.66-1.46-5.66-1.46C4.675,10.34.281,13.57.281,20.142a18.465,18.465,0,0,0,1.067,6.016c.948,2.719,4.371,9.387,7.942,9.276,1.867-.044,3.186-1.326,5.616-1.326,2.356,0,3.578,1.326,5.66,1.326,3.6-.052,6.7-6.112,7.6-8.838A7.344,7.344,0,0,1,23.6,19.786ZM19.4,7.621A6.978,6.978,0,0,0,21.181,2.25a7.856,7.856,0,0,0-5.03,2.586,7.087,7.087,0,0,0-1.9,5.327A6.222,6.222,0,0,0,19.4,7.621Z" transform="translate(-0.281 -2.25)"/>
</svg>
