<svg id="shopping-cart-add" xmlns="http://www.w3.org/2000/svg" width="27.887" height="28.2" viewBox="0 0 27.887 28.2">
  <circle id="Ellipse_19" data-name="Ellipse 19" cx="2.5" cy="2.5" r="2.5" transform="translate(5.287 23.2)" fill="#fff"/>
  <circle id="Ellipse_20" data-name="Ellipse 20" cx="2.5" cy="2.5" r="2.5" transform="translate(17.287 23.2)" fill="#fff"/>
  <path id="Path_910" data-name="Path 910" d="M24.134,3.486H21.81V1.162a1.162,1.162,0,0,0-2.324,0V3.486H17.162a1.162,1.162,0,0,0,0,2.324h2.324V8.134a1.162,1.162,0,0,0,2.324,0V5.81h2.324a1.162,1.162,0,0,0,0-2.324Z" transform="translate(2.591)" fill="#fff"/>
  <path id="Path_911" data-name="Path 911" d="M25.3,11.3a1.155,1.155,0,0,0-1.35.937,3.486,3.486,0,0,1-3.43,2.868H6.3L5.2,5.81h9.9a1.162,1.162,0,0,0,0-2.324H4.929L4.88,3.077A3.486,3.486,0,0,0,1.42,0H1.162a1.162,1.162,0,0,0,0,2.324H1.42A1.162,1.162,0,0,1,2.574,3.35l1.6,13.595a5.81,5.81,0,0,0,5.77,5.132H22.077a1.162,1.162,0,1,0,0-2.324H9.943a3.486,3.486,0,0,1-3.287-2.325H20.516a5.81,5.81,0,0,0,5.718-4.778A1.162,1.162,0,0,0,25.3,11.3Z" fill="#fff"/>
</svg>
