<svg xmlns="http://www.w3.org/2000/svg" width="24" height="21" viewBox="0 0 24 21">
  <path id="Icon_awesome-comment-dots" data-name="Icon awesome-comment-dots" d="M12,2.25C5.372,2.25,0,6.614,0,12a8.654,8.654,0,0,0,2.672,6.127A11.925,11.925,0,0,1,.1,22.617a.373.373,0,0,0-.07.408.367.367,0,0,0,.342.225,10.72,10.72,0,0,0,6.591-2.409A14.3,14.3,0,0,0,12,21.75c6.628,0,12-4.364,12-9.75S18.628,2.25,12,2.25ZM6,13.5A1.5,1.5,0,1,1,7.5,12,1.5,1.5,0,0,1,6,13.5Zm6,0A1.5,1.5,0,1,1,13.5,12,1.5,1.5,0,0,1,12,13.5Zm6,0A1.5,1.5,0,1,1,19.5,12,1.5,1.5,0,0,1,18,13.5Z" transform="translate(0 -2.25)" fill="#222f3e"/>
</svg>
