<svg xmlns="http://www.w3.org/2000/svg" width="18.827" height="13.448" viewBox="0 0 18.827 13.448">
  <g id="Icon_ionic-ios-card" data-name="Icon ionic-ios-card" transform="translate(-2.25 -6.75)" opacity="0.29">
    <path id="Path_912" data-name="Path 912" d="M21.077,8.095A1.349,1.349,0,0,0,19.733,6.75H3.595A1.349,1.349,0,0,0,2.25,8.095v2.017H21.077Z"/>
    <path id="Path_913" data-name="Path 913" d="M2.25,22.474a1.349,1.349,0,0,0,1.345,1.345H19.733a1.349,1.349,0,0,0,1.345-1.345V15.75H2.25Zm5.968-2.017H15.11a.59.59,0,0,1,.588.588h0a.59.59,0,0,1-.588.588H8.218a.59.59,0,0,1-.588-.588h0A.59.59,0,0,1,8.218,20.457Zm-3.026,0h.5a.59.59,0,0,1,.588.588h0a.59.59,0,0,1-.588.588h-.5a.59.59,0,0,1-.588-.588h0A.59.59,0,0,1,5.192,20.457Z" transform="translate(0 -3.621)"/>
  </g>
</svg>
