<svg xmlns="http://www.w3.org/2000/svg" width="262.343" height="204.004" viewBox="0 0 262.343 204.004">
  <g id="Credit_card-rafiki" data-name="Credit card-rafiki" transform="translate(-20.403 -33.357)">
    <g id="freepik--background-complete--inject-1" transform="translate(0 0.05)">
      <rect id="Rectangle_306" data-name="Rectangle 306" width="21.912" height="0.159" transform="translate(218.647 215.29)" fill="#e6e6e6"/>
      <rect id="Rectangle_307" data-name="Rectangle 307" width="12.332" height="0.159" transform="translate(58.398 215.367)" fill="#e6e6e6"/>
      <rect id="Rectangle_308" data-name="Rectangle 308" width="24.995" height="0.159" transform="translate(134.885 214.997)" fill="#e6e6e6"/>
      <rect id="Rectangle_309" data-name="Rectangle 309" width="11.173" height="0.159" transform="translate(123.076 212.73)" fill="#e6e6e6"/>
      <rect id="Rectangle_310" data-name="Rectangle 310" width="33.753" height="0.159" transform="translate(236.68 212.806)" fill="#e6e6e6"/>
      <rect id="Rectangle_316" data-name="Rectangle 316" width="10.809" height="2.905" rx="1.452" transform="translate(179.569 47.735)" fill="#f5f5f5"/>
      <rect id="Rectangle_317" data-name="Rectangle 317" width="10.809" height="2.905" rx="1.452" transform="translate(275.121 50.639) rotate(180)" fill="#f5f5f5"/>
      <path id="Path_929" data-name="Path 929" d="M163,171.97h0a7.867,7.867,0,0,1,7.867-7.86h1.771a7.867,7.867,0,0,1,7.86,7.86h0a7.86,7.86,0,0,1-7.86,7.86h-1.771A7.86,7.86,0,0,1,163,171.97Z" transform="translate(-59.173 -94.61)" fill="#f5f5f5"/>
      <rect id="Rectangle_321" data-name="Rectangle 321" width="27.332" height="73.851" transform="translate(197.098 136.949)" fill="#e0e0e0"/>
      <path id="Path_932" data-name="Path 932" d="M336.52,324.02h7.3V311.79H328.87Z" transform="translate(-119.389 -113.22)" fill="#fafafa"/>
      <path id="Path_934" data-name="Path 934" d="M154.439,284.83h-8.249a37.92,37.92,0,0,1,1.433,7.86c0,2.911-6.274,14.319,2.694,14.319s2.688-11.408,2.688-14.319A37.92,37.92,0,0,1,154.439,284.83Z" transform="translate(-52.817 -138.435)" fill="#fafafa"/>
      <path id="Path_935" data-name="Path 935" d="M108.56,298.33v4.5c0,4.994,4.828,9.077,10.727,9.077h5.319c5.9,0,10.727-4.083,10.727-9.077v-4.5Z" transform="translate(-39.41 -143.335)" fill="#f0f0f0"/>
      <rect id="Rectangle_328" data-name="Rectangle 328" width="12.701" height="21.154" transform="translate(148.727 199.933) rotate(180)" fill="#fff"/>
      <rect id="Rectangle_329" data-name="Rectangle 329" width="0.866" height="21.154" transform="translate(147.612 200.264) rotate(180)" fill="#e6e6e6"/>
      <rect id="Rectangle_330" data-name="Rectangle 330" width="2.828" height="21.479" rx="0.48" transform="translate(150.198 200.423) rotate(180)" fill="#ebebeb"/>
      <rect id="Rectangle_331" data-name="Rectangle 331" width="2.828" height="5.019" transform="translate(150.198 188.869) rotate(180)" fill="#fff"/>
      <rect id="Rectangle_332" data-name="Rectangle 332" width="2.828" height="3.096" transform="translate(150.198 193.512) rotate(180)" fill="#fff"/>
      <rect id="Rectangle_333" data-name="Rectangle 333" width="12.058" height="21.479" rx="0.48" transform="translate(147.128 200.423) rotate(180)" fill="#ebebeb"/>
      <rect id="Rectangle_334" data-name="Rectangle 334" width="14.013" height="23.339" transform="translate(143.841 199.882) rotate(180)" fill="#fff"/>
      <rect id="Rectangle_335" data-name="Rectangle 335" width="0.949" height="23.339" transform="translate(142.618 200.245) rotate(180)" fill="#e6e6e6"/>
      <rect id="Rectangle_336" data-name="Rectangle 336" width="3.121" height="23.695" rx="0.53" transform="translate(145.472 200.423) rotate(180)" fill="#f0f0f0"/>
      <rect id="Rectangle_337" data-name="Rectangle 337" width="3.121" height="0.809" transform="translate(145.472 185.085) rotate(180)" fill="#fff"/>
      <rect id="Rectangle_338" data-name="Rectangle 338" width="3.121" height="0.809" transform="translate(145.472 187.429) rotate(180)" fill="#fff"/>
      <rect id="Rectangle_339" data-name="Rectangle 339" width="3.121" height="0.809" transform="translate(145.472 189.767) rotate(180)" fill="#fff"/>
      <rect id="Rectangle_340" data-name="Rectangle 340" width="13.3" height="23.695" rx="0.53" transform="translate(142.083 200.423) rotate(180)" fill="#f0f0f0"/>
      <path id="Path_936" data-name="Path 936" d="M172.625,354.846a3.593,3.593,0,1,1-3.593-3.586A3.592,3.592,0,0,1,172.625,354.846Z" transform="translate(-60.059 -162.551)" fill="#fafafa"/>
      <path id="Path_937" data-name="Path 937" d="M163.908,357.979a2.809,2.809,0,1,1-2.809-2.809A2.809,2.809,0,0,1,163.908,357.979Z" transform="translate(-57.464 -163.97)" fill="#fafafa"/>
      <path id="Path_938" data-name="Path 938" d="M182.275,357.533a3.593,3.593,0,1,1-3.593-3.592,3.593,3.593,0,0,1,3.593,3.592Z" transform="translate(-63.562 -163.523)" fill="#fafafa"/>
      <path id="Path_939" data-name="Path 939" d="M191.515,355.883a3.593,3.593,0,1,1-3.593-3.593A3.593,3.593,0,0,1,191.515,355.883Z" transform="translate(-66.917 -162.924)" fill="#fafafa"/>
      <path id="Path_940" data-name="Path 940" d="M147.18,358.66s.49,7.007,19.389,7.007,19.389-7.007,19.389-7.007Z" transform="translate(-53.43 -165.237)" fill="#f5f5f5"/>
      <path id="Path_941" data-name="Path 941" d="M230.38,308.65s.783,7.007,30.734,7.007,30.728-7.007,30.728-7.007Z" transform="translate(-83.634 -147.082)" fill="#fff"/>
    </g>
    <g id="freepik--Shadow--inject-1" transform="translate(35.741 222.939)">
      <ellipse id="Ellipse_24" data-name="Ellipse 24" cx="123.503" cy="7.211" rx="123.503" ry="7.211" fill="#f5f5f5"/>
    </g>
    <g id="freepik--Coins--inject-1" transform="translate(20.403 33.357)">
      <circle id="Ellipse_25" data-name="Ellipse 25" cx="34.498" cy="34.498" r="34.498" transform="translate(0 76.908) rotate(-45)" fill="#ffa31d"/>
      <circle id="Ellipse_26" data-name="Ellipse 26" cx="34.498" cy="34.498" r="34.498" transform="translate(0 76.908) rotate(-45)" fill="#222f3e" opacity="0.96"/>
      <circle id="Ellipse_27" data-name="Ellipse 27" cx="28.97" cy="28.97" r="28.97" transform="translate(15.362 100.595) rotate(-80.32)" opacity="0.2"/>
      <circle id="Ellipse_28" data-name="Ellipse 28" cx="27.878" cy="27.878" r="27.878" transform="translate(21.165 103.599) rotate(-85.996)" fill="#ffa31d"/>
      <circle id="Ellipse_29" data-name="Ellipse 29" cx="27.878" cy="27.878" r="27.878" transform="translate(21.165 103.599) rotate(-85.996)" fill="#222f3e" opacity="0.95"/>
      <path id="Path_942" data-name="Path 942" d="M112.476,215.122l1.815,7.867a2.236,2.236,0,0,1-.293,1.777,2.338,2.338,0,0,1-1.484,1.051l-6.918,1.6,1.274,5.535a2.21,2.21,0,0,1-.306,1.764,2.236,2.236,0,0,1-1.484,1.006,2.344,2.344,0,0,1-1.8-.28,2.217,2.217,0,0,1-1.045-1.452l-1.274-5.6-6.86,1.586a2.255,2.255,0,0,1-1.745-.293,2.229,2.229,0,0,1-1.051-1.452,2.268,2.268,0,0,1,.293-1.758,2.229,2.229,0,0,1,1.452-1.038l16.052-3.7-.752-3.268-16.007,3.688a2.261,2.261,0,0,1-1.758-.274,2.229,2.229,0,0,1-1.038-1.471l-1.809-7.835a2.331,2.331,0,0,1,1.745-2.8l6.828-1.573-1.274-5.542a2.261,2.261,0,0,1,.268-1.739,2.287,2.287,0,0,1,1.554-1.07,2.236,2.236,0,0,1,1.739.293,2.274,2.274,0,0,1,1.032,1.459l1.274,5.535,7.007-1.605a2.312,2.312,0,0,1,1.79.3,2.217,2.217,0,0,1,1.057,1.433,2.414,2.414,0,0,1-1.79,2.86l-16.052,3.7.7,3.249,15.994-3.688a2.312,2.312,0,0,1,1.79.3,2.2,2.2,0,0,1,1.076,1.433Z" transform="translate(-52.232 -140.87)" fill="#ffa31d"/>
      <g id="Group_523" data-name="Group 523" transform="translate(35.443 58.921)" opacity="0.7">
        <path id="Path_943" data-name="Path 943" d="M112.476,215.122l1.815,7.867a2.236,2.236,0,0,1-.293,1.777,2.338,2.338,0,0,1-1.484,1.051l-6.918,1.6,1.274,5.535a2.21,2.21,0,0,1-.306,1.764,2.236,2.236,0,0,1-1.484,1.006,2.344,2.344,0,0,1-1.8-.28,2.217,2.217,0,0,1-1.045-1.452l-1.274-5.6-6.86,1.586a2.255,2.255,0,0,1-1.745-.293,2.229,2.229,0,0,1-1.051-1.452,2.268,2.268,0,0,1,.293-1.758,2.229,2.229,0,0,1,1.452-1.038l16.052-3.7-.752-3.268-16.007,3.688a2.261,2.261,0,0,1-1.758-.274,2.229,2.229,0,0,1-1.038-1.471l-1.809-7.835a2.331,2.331,0,0,1,1.745-2.8l6.828-1.573-1.274-5.542a2.261,2.261,0,0,1,.268-1.739,2.287,2.287,0,0,1,1.554-1.07,2.236,2.236,0,0,1,1.739.293,2.274,2.274,0,0,1,1.032,1.459l1.274,5.535,7.007-1.605a2.312,2.312,0,0,1,1.79.3,2.217,2.217,0,0,1,1.057,1.433,2.414,2.414,0,0,1-1.79,2.86l-16.052,3.7.7,3.249,15.994-3.688a2.312,2.312,0,0,1,1.79.3,2.2,2.2,0,0,1,1.076,1.433Z" transform="translate(-87.675 -199.791)" fill="#fff"/>
      </g>
      <circle id="Ellipse_30" data-name="Ellipse 30" cx="24.078" cy="24.078" r="24.078" transform="matrix(0.645, -0.764, 0.764, 0.645, 70.084, 36.781)" fill="#ffa31d"/>
      <circle id="Ellipse_31" data-name="Ellipse 31" cx="24.078" cy="24.078" r="24.078" transform="matrix(0.645, -0.764, 0.764, 0.645, 70.084, 36.781)" fill="#222f3e" opacity="0.97"/>
      <circle id="Ellipse_32" data-name="Ellipse 32" cx="20.218" cy="20.218" r="20.218" transform="matrix(0.637, -0.771, 0.771, 0.637, 75.552, 36.614)" opacity="0.2"/>
      <circle id="Ellipse_33" data-name="Ellipse 33" cx="19.409" cy="19.409" r="19.409" transform="translate(77.583 38.856) rotate(-52.61)" fill="#ffa31d"/>
      <circle id="Ellipse_34" data-name="Ellipse 34" cx="19.409" cy="19.409" r="19.409" transform="translate(77.583 38.856) rotate(-52.61)" fill="#222f3e" opacity="0.98"/>
      <path id="Path_944" data-name="Path 944" d="M197.923,155.395l-1.369,5.465a1.535,1.535,0,0,1-.752.987,1.643,1.643,0,0,1-1.274.185l-4.771-1.2-.968,3.822a1.541,1.541,0,0,1-.752.994,1.567,1.567,0,0,1-1.223.185,1.637,1.637,0,0,1-1.025-.745,1.567,1.567,0,0,1-.191-1.236l.975-3.886L181.8,158.8a1.573,1.573,0,0,1-.994-.739,1.548,1.548,0,0,1-.191-1.229,1.567,1.567,0,0,1,.739-1.006,1.586,1.586,0,0,1,1.236-.178l11.147,2.8.573-2.268-11.115-2.79a1.548,1.548,0,0,1-1-.733,1.522,1.522,0,0,1-.178-1.236l1.363-5.446a1.618,1.618,0,0,1,1.975-1.178l4.726,1.185.968-3.822a1.6,1.6,0,0,1,2.026-1.191,1.522,1.522,0,0,1,.981.733,1.573,1.573,0,0,1,.185,1.229l-.968,3.822,4.841,1.217a1.612,1.612,0,0,1,1.019.758,1.554,1.554,0,0,1,.2,1.223,1.643,1.643,0,0,1-.764,1.019,1.624,1.624,0,0,1-1.274.191l-11.153-2.8-.561,2.255,11.109,2.784a1.612,1.612,0,0,1,1.019.758A1.522,1.522,0,0,1,197.923,155.395Z" transform="translate(-85.951 -119.488)" fill="#ffa31d"/>
      <g id="Group_524" data-name="Group 524" transform="translate(94.608 21.404)" opacity="0.7">
        <path id="Path_945" data-name="Path 945" d="M197.923,155.395l-1.369,5.465a1.535,1.535,0,0,1-.752.987,1.643,1.643,0,0,1-1.274.185l-4.771-1.2-.968,3.822a1.541,1.541,0,0,1-.752.994,1.567,1.567,0,0,1-1.223.185,1.637,1.637,0,0,1-1.025-.745,1.567,1.567,0,0,1-.191-1.236l.975-3.886L181.8,158.8a1.573,1.573,0,0,1-.994-.739,1.548,1.548,0,0,1-.191-1.229,1.567,1.567,0,0,1,.739-1.006,1.586,1.586,0,0,1,1.236-.178l11.147,2.8.573-2.268-11.115-2.79a1.548,1.548,0,0,1-1-.733,1.522,1.522,0,0,1-.178-1.236l1.363-5.446a1.618,1.618,0,0,1,1.975-1.178l4.726,1.185.968-3.822a1.6,1.6,0,0,1,2.026-1.191,1.522,1.522,0,0,1,.981.733,1.573,1.573,0,0,1,.185,1.229l-.968,3.822,4.841,1.217a1.612,1.612,0,0,1,1.019.758,1.554,1.554,0,0,1,.2,1.223,1.643,1.643,0,0,1-.764,1.019,1.624,1.624,0,0,1-1.274.191l-11.153-2.8-.561,2.255,11.109,2.784a1.612,1.612,0,0,1,1.019.758A1.522,1.522,0,0,1,197.923,155.395Z" transform="translate(-180.559 -140.892)" fill="#fff"/>
      </g>
    </g>
    <g id="freepik--credit-card--inject-1" transform="translate(65.137 113.074)" opacity="0.98">
      <rect id="Rectangle_341" data-name="Rectangle 341" width="0.637" height="7.191" transform="translate(0 99.705)" fill="#ffa31d"/>
      <rect id="Rectangle_342" data-name="Rectangle 342" width="0.637" height="7.191" transform="translate(0 99.705)" opacity="0.1"/>
      <rect id="Rectangle_343" data-name="Rectangle 343" width="0.637" height="9.854" transform="translate(187.576 42.728)" fill="#ffa31d"/>
      <rect id="Rectangle_344" data-name="Rectangle 344" width="0.637" height="5.344" transform="translate(187.576 57.754)" fill="#ffa31d"/>
      <rect id="Rectangle_345" data-name="Rectangle 345" width="0.637" height="9.854" transform="translate(187.576 42.728)" opacity="0.1"/>
      <rect id="Rectangle_346" data-name="Rectangle 346" width="0.637" height="5.344" transform="translate(187.576 57.754)" opacity="0.1"/>
      <rect id="Rectangle_347" data-name="Rectangle 347" width="183.76" height="115.515" rx="15.05" transform="translate(2.229)" fill="#ffa31d"/>
      <path id="Path_946" data-name="Path 946" d="M332.023,282.035a11.892,11.892,0,0,0,0-23.785H316.672a11.892,11.892,0,1,0,0,23.785Z" transform="translate(-175.78 -241.81)" fill="#ffa31d"/>
      <rect id="Rectangle_349" data-name="Rectangle 349" width="36.581" height="26.772" rx="6.48" transform="translate(20.084 40.218)" fill="#ffa31d"/>
      <rect id="Rectangle_350" data-name="Rectangle 350" width="36.581" height="26.772" rx="6.48" transform="translate(20.084 40.218)" fill="#fff" opacity="0.3"/>
      <rect id="Rectangle_351" data-name="Rectangle 351" width="54.977" height="5.841" rx="2.921" transform="translate(20.084 13.517)" fill="#ffa31d"/>
      <rect id="Rectangle_352" data-name="Rectangle 352" width="54.977" height="5.841" rx="2.921" transform="translate(20.084 13.517)" fill="#fff" opacity="0.3"/>
      <rect id="Rectangle_353" data-name="Rectangle 353" width="30.67" height="12.58" rx="6.29" transform="translate(20.084 80.278)" fill="#ffa31d"/>
      <rect id="Rectangle_354" data-name="Rectangle 354" width="30.67" height="12.58" rx="6.29" transform="translate(20.084 80.278)" fill="#fff" opacity="0.3"/>
      <rect id="Rectangle_355" data-name="Rectangle 355" width="30.67" height="12.58" rx="6.29" transform="translate(59.207 80.278)" fill="#ffa31d"/>
      <rect id="Rectangle_356" data-name="Rectangle 356" width="30.67" height="12.58" rx="6.29" transform="translate(59.207 80.278)" fill="#fff" opacity="0.3"/>
      <rect id="Rectangle_357" data-name="Rectangle 357" width="30.67" height="12.58" rx="6.29" transform="translate(98.336 80.278)" fill="#ffa31d"/>
      <rect id="Rectangle_358" data-name="Rectangle 358" width="30.67" height="12.58" rx="6.29" transform="translate(98.336 80.278)" fill="#fff" opacity="0.3"/>
      <rect id="Rectangle_359" data-name="Rectangle 359" width="30.67" height="12.58" rx="6.29" transform="translate(137.459 80.278)" fill="#ffa31d"/>
      <rect id="Rectangle_360" data-name="Rectangle 360" width="30.67" height="12.58" rx="6.29" transform="translate(137.459 80.278)" fill="#fff" opacity="0.3"/>
    </g>
    <g id="freepik--Character--inject-1" transform="translate(143.344 35.332)">
      <path id="Path_947" data-name="Path 947" d="M273.553,165.433c-1.51,4.261-3.185,8.383-4.962,12.5a107.436,107.436,0,0,1-6.179,12.192q-.468.755-.975,1.51l-.248.376-.338.465c-.229.293-.446.548-.637.8a33.241,33.241,0,0,1-2.548,2.548c-1.7,1.573-3.433,3-5.185,4.408-3.516,2.79-7.109,5.4-10.829,7.879l-2.223-2.758,9.364-9.23c1.548-1.535,3.083-3.083,4.516-4.631.707-.771,1.395-1.561,1.962-2.287.14-.178.261-.357.369-.51l.134-.217.185-.331c.248-.44.51-.866.752-1.319,1.949-3.663,3.669-7.644,5.325-11.682s3.249-8.109,4.777-12.147Z" transform="translate(-230.264 -129.489)" fill="#e4897b"/>
      <path id="Path_948" data-name="Path 948" d="M287.166,160.087c1.446,4.23-7.051,16.67-7.051,16.67L272,172.24a94.908,94.908,0,0,1,4.892-11.338C279.733,155.526,285.58,155.443,287.166,160.087Z" transform="translate(-242.088 -127.212)" fill="#ffa31d"/>
      <path id="Path_949" data-name="Path 949" d="M287.166,160.087c1.446,4.23-7.051,16.67-7.051,16.67L272,172.24a94.908,94.908,0,0,1,4.892-11.338C279.733,155.526,285.58,155.443,287.166,160.087Z" transform="translate(-242.088 -127.212)" fill="#fff" opacity="0.7"/>
      <path id="Path_950" data-name="Path 950" d="M290.061,162.639c-1.822-.873-3.917-.14-6.128,3.35a37.83,37.83,0,0,0-4.293,10.981l3.255,1.8S290.736,167.282,290.061,162.639Z" transform="translate(-244.861 -129.236)" fill="#ffa31d" opacity="0.31"/>
      <path id="Path_951" data-name="Path 951" d="M285.312,156.085s-6.064,14.262-1.694,40.817h25.256c.312-3.879-1.471-22.791,2.9-41.059a64.486,64.486,0,0,0-8.421-1.07,94.211,94.211,0,0,0-10.733,0,48.7,48.7,0,0,0-7.312,1.312Z" transform="translate(-245.731 -126.447)" fill="#ffa31d"/>
      <path id="Path_952" data-name="Path 952" d="M285.312,156.085s-6.064,14.262-1.694,40.817h25.256c.312-3.879-1.471-22.791,2.9-41.059a64.486,64.486,0,0,0-8.421-1.07,94.211,94.211,0,0,0-10.733,0,48.7,48.7,0,0,0-7.312,1.312Z" transform="translate(-245.731 -126.447)" fill="#fff" opacity="0.7"/>
      <path id="Path_953" data-name="Path 953" d="M332.017,339.444l-3.739,3.35-7.128-7.414,3.745-3.35Z" transform="translate(-259.931 -155.85)" fill="#e4897b"/>
      <path id="Path_954" data-name="Path 954" d="M315.041,348.387h-4.72l-.612-10.937h4.72Z" transform="translate(-255.778 -157.817)" fill="#e4897b"/>
      <path id="Path_955" data-name="Path 955" d="M321.16,335.38l3.669,3.822,3.745-3.35-3.669-3.822Z" transform="translate(-259.934 -155.85)" fill="#ce6f64"/>
      <path id="Path_956" data-name="Path 956" d="M314.43,337.46h-4.72l.318,5.637h4.72Z" transform="translate(-255.778 -157.821)" fill="#ce6f64"/>
      <path id="Path_957" data-name="Path 957" d="M280.7,220.989s-4.975,34.435-6.669,53.174c-1.363,15.039,31.154,59.875,31.154,59.875l6.287-5.917s-23.746-40.2-21.918-56.939c1.771-16.211,7.771-50.213,7.771-50.213Z" transform="translate(-242.808 -150.534)" fill="#ffa31d"/>
      <path id="Path_958" data-name="Path 958" d="M280.7,220.989s-4.975,34.435-6.669,53.174c-1.363,15.039,31.154,59.875,31.154,59.875l6.287-5.917s-23.746-40.2-21.918-56.939c1.771-16.211,7.771-50.213,7.771-50.213Z" transform="translate(-242.808 -150.534)" opacity="0.7"/>
      <path id="Path_959" data-name="Path 959" d="M296.906,278.411c.911-8.351,2.949-21.434,4.7-32.148-.917-1.8-3.491-5.433-3.491-5.433-2.306,7.969-7.319,38.008-.166,78.577,7.453,12.013,14.587,21.861,14.587,21.861l.975-15.491C306.626,312.821,295.639,289.985,296.906,278.411Z" transform="translate(-250.165 -157.743)" opacity="0.2"/>
      <path id="Path_960" data-name="Path 960" d="M298.546,221s-.446,36.085.318,49.607c.834,14.8,5.038,63.85,5.038,63.85h8.65s-.261-47.849.248-62.5c.567-15.924,2.032-50.958,2.032-50.958Z" transform="translate(-251.678 -150.544)" fill="#ffa31d"/>
      <path id="Path_961" data-name="Path 961" d="M298.546,221s-.446,36.085.318,49.607c.834,14.8,5.038,63.85,5.038,63.85h8.65s-.261-47.849.248-62.5c.567-15.924,2.032-50.958,2.032-50.958Z" transform="translate(-251.678 -150.544)" opacity="0.7"/>
      <path id="Path_962" data-name="Path 962" d="M303.941,408.72h5.306a.338.338,0,0,1,.35.318l.261,4.2a.834.834,0,0,1-.828.841c-1.847-.032-2.733-.14-5.064-.14-1.433,0-7.535.153-9.516.153s-1.911-1.962-1.089-2.14c3.764-.8,8.433-1.911,9.771-2.943a1.331,1.331,0,0,1,.809-.287Z" transform="translate(-249.646 -218.692)" fill="#263238"/>
      <path id="Path_963" data-name="Path 963" d="M325.967,399.982l4.548-3.064a.42.42,0,0,1,.522,0l3.478,3.51a.7.7,0,0,1-.166,1.064,48.043,48.043,0,0,0-6.656,5.784c-1.911,2.172-2.943,2.484-7.4,2.484-2.064,0-3.229-1.739-2.389-2.006,7.427-2.35,5.44-3.376,7.249-6.822A2.548,2.548,0,0,1,325.967,399.982Z" transform="translate(-258.652 -214.375)" fill="#263238"/>
      <path id="Path_964" data-name="Path 964" d="M238.3,228.56l-4.924.172,1.032,3.86s5.147.459,5.605-1.1Z" transform="translate(-228.068 -153.289)" fill="#e4897b"/>
      <path id="Path_965" data-name="Path 965" d="M225.04,176.179l3.452,2.013,2.892-.452-1.032-3.86Z" transform="translate(-225.04 -98.437)" fill="#e4897b"/>
      <path id="Path_966" data-name="Path 966" d="M319.778,162.033c-.522,3.007.172,10.192,2.752,18.51a121.453,121.453,0,0,1,2.478-21.2V159.3C323.351,159.135,320.281,159.212,319.778,162.033Z" transform="translate(-259.374 -128.127)" fill="#ffa31d" opacity="0.31"/>
      <path id="Path_967" data-name="Path 967" d="M308.178,135.88c-.8,3.452-1.694,9.784.637,12.1,0,0-1.006,2.86-7.427,2.86-7.058,0-3.306-2.86-3.306-2.86,3.886-.917,3.886-3.777,3.306-6.459Z" transform="translate(-251.195 -119.644)" fill="#e4897b"/>
      <path id="Path_968" data-name="Path 968" d="M302.471,104.4l-1.911,2.032.936,1.962,1.522.07,1.3-1.873Z" transform="translate(-252.456 -73.214)" fill="#ffa31d"/>
      <path id="Path_969" data-name="Path 969" d="M307.869,139.49l-4.019,3.325a11.052,11.052,0,0,1,.268,1.911c1.478-.21,3.554-1.828,3.765-3.37A5.02,5.02,0,0,0,307.869,139.49Z" transform="translate(-253.65 -120.954)" fill="#ce6f64"/>
      <path id="Path_970" data-name="Path 970" d="M299.684,117.421c-2.414.822-4.344,7.223-1.529,8.918S304.27,115.86,299.684,117.421Z" transform="translate(-251.076 -112.892)" fill="#263238"/>
      <path id="Path_971" data-name="Path 971" d="M308.682,125.536c-1.44,4.459-2.051,7.153-4.956,8.981a6.109,6.109,0,0,1-9.408-5.338c.057-4.287,2.4-10.886,7.338-11.714a6.185,6.185,0,0,1,7.026,8.07Z" transform="translate(-250.189 -112.918)" fill="#e4897b"/>
      <path id="Path_972" data-name="Path 972" d="M310.533,115.556c-1.44,3.478,1.911.573,1.045,4.7-.561,2.688-5.414,9.128-7.287,8.542s-1.854-5.153.535-8.383c1.376-1.854-1.6-3.956-8.281-3.733s-10.72-3.535-1.841-6.293c0,0-3.274,1.911-1.331,2.548C296.125,113.963,313.419,108.587,310.533,115.556Z" transform="translate(-248.473 -110.39)" fill="#263238"/>
      <path id="Path_973" data-name="Path 973" d="M320.469,119.185c-.07,0,1.5-.389,2.331-3.185C322.8,116.045,322.526,120.166,320.469,119.185Z" transform="translate(-259.682 -112.427)" fill="#263238"/>
      <path id="Path_974" data-name="Path 974" d="M299.388,111.36c-4.108,1.274-2.408,2.707-.707,3.064l3.9-1.529C296.656,113.679,299.388,111.36,299.388,111.36Z" transform="translate(-251.106 -110.742)" fill="#263238"/>
      <path id="Path_975" data-name="Path 975" d="M315.431,136.791a4.663,4.663,0,0,1-3.185,1.319c-1.573,0-1.911-1.491-1.064-2.739.752-1.121,2.471-2.471,3.86-1.866A1.942,1.942,0,0,1,315.431,136.791Z" transform="translate(-256.148 -118.727)" fill="#e4897b"/>
      <path id="Path_976" data-name="Path 976" d="M304.944,129.368c-.1.369-.369.637-.637.573s-.363-.4-.268-.771.369-.637.637-.567S305.039,129,304.944,129.368Z" transform="translate(-253.706 -116.998)" fill="#263238"/>
      <path id="Path_977" data-name="Path 977" d="M298.344,127.919c-.1.369-.369.637-.637.573s-.363-.395-.268-.764.363-.637.637-.573S298.42,127.55,298.344,127.919Z" transform="translate(-251.31 -116.473)" fill="#263238"/>
      <path id="Path_978" data-name="Path 978" d="M299.448,129.11a14.376,14.376,0,0,1-2.548,2.771,2.179,2.179,0,0,0,1.694.72Z" transform="translate(-251.127 -117.186)" fill="#de5753"/>
      <path id="Path_979" data-name="Path 979" d="M301.5,136.144a3.522,3.522,0,0,1-.783-.089.111.111,0,0,1,.051-.217,3.185,3.185,0,0,0,2.7-.637.113.113,0,0,1,.159.159A3.236,3.236,0,0,1,301.5,136.144Z" transform="translate(-252.484 -119.386)" fill="#263238"/>
      <path id="Path_980" data-name="Path 980" d="M307.184,127.224a.217.217,0,0,1-.2-.134,1.72,1.72,0,0,0-1.21-1.026.223.223,0,0,1-.191-.255.229.229,0,0,1,.255-.191,2.153,2.153,0,0,1,1.554,1.274.217.217,0,0,1-.115.293A.223.223,0,0,1,307.184,127.224Z" transform="translate(-254.277 -115.918)" fill="#263238"/>
      <path id="Path_981" data-name="Path 981" d="M296.524,124.782a.223.223,0,0,1-.14-.051.229.229,0,0,1-.032-.318,2.338,2.338,0,0,1,1.873-.873.223.223,0,0,1,.2.242.217.217,0,0,1-.242.2,1.873,1.873,0,0,0-1.49.713.217.217,0,0,1-.172.083Z" transform="translate(-250.91 -115.163)" fill="#263238"/>
      <path id="Path_982" data-name="Path 982" d="M327.208,161.65c.5.771.911,1.452,1.331,2.191s.822,1.452,1.217,2.191c.777,1.471,1.51,2.975,2.178,4.51a46.946,46.946,0,0,1,3.14,9.8l.064.325.032.159.045.268a7.3,7.3,0,0,1,.083,1.076,9.473,9.473,0,0,1-.191,1.8,15.166,15.166,0,0,1-.93,2.841,30.38,30.38,0,0,1-2.548,4.593,53.508,53.508,0,0,1-6.293,7.727l-2.771-2.223c1.541-2.688,3.077-5.478,4.363-8.211a31.219,31.219,0,0,0,1.618-4.038,9.084,9.084,0,0,0,.369-1.771,2.652,2.652,0,0,0,0-.592c0-.057,0-.108-.038-.115s0,0,0-.032l-.038-.127-.076-.261a40.43,40.43,0,0,0-1.433-4.14c-.561-1.382-1.185-2.758-1.841-4.128s-1.363-2.72-2.089-4.07c-.357-.675-.732-1.344-1.108-2.006L321.17,165.5Z" transform="translate(-259.938 -128.999)" fill="#e4897b"/>
      <path id="Path_983" data-name="Path 983" d="M307.058,409.318a1.274,1.274,0,0,1-.892-.248.637.637,0,0,1-.14-.6.427.427,0,0,1,.261-.312c.58-.229,1.911.688,2.064.79a.1.1,0,0,1,.045.115.108.108,0,0,1-.083.089A6.055,6.055,0,0,1,307.058,409.318Zm-.554-.975a.422.422,0,0,0-.134,0,.185.185,0,0,0-.121.153.4.4,0,0,0,.076.395c.217.217.834.242,1.682.076a3.784,3.784,0,0,0-1.5-.618Z" transform="translate(-254.432 -218.475)" fill="#fff"/>
      <path id="Path_984" data-name="Path 984" d="M308.945,408.538h-.057c-.471-.28-1.172-1.274-1.064-1.784a.42.42,0,0,1,.4-.338.567.567,0,0,1,.465.153c.478.465.369,1.822.369,1.879a.114.114,0,0,1-.064.089Zm-.637-1.911h-.051a.187.187,0,0,0-.21.159c-.07.338.395,1.083.8,1.427a2.452,2.452,0,0,0-.306-1.491.337.337,0,0,0-.242-.1Z" transform="translate(-255.089 -217.854)" fill="#fff"/>
      <path id="Path_985" data-name="Path 985" d="M325.524,405.144a.829.829,0,0,1-.344-.064.561.561,0,0,1-.338-.395.325.325,0,0,1,.07-.312c.427-.516,2.663-.363,2.917-.344a.108.108,0,0,1,.1.083.115.115,0,0,1-.051.121A5.949,5.949,0,0,1,325.524,405.144Zm1.35-.93a3.331,3.331,0,0,0-1.79.3.108.108,0,0,0,0,.115.338.338,0,0,0,.2.248,3.427,3.427,0,0,0,2.172-.637Z" transform="translate(-261.266 -216.976)" fill="#fff"/>
      <path id="Path_986" data-name="Path 986" d="M328.288,403.518h0c-.637,0-2.07-.49-2.178-1a.434.434,0,0,1,.306-.452c1.1-.516,1.943,1.217,1.981,1.274a.147.147,0,0,1,0,.115.121.121,0,0,1-.108.064Zm-1.471-1.319a.7.7,0,0,0-.312.07c-.134.064-.2.134-.185.2.064.3,1.1.72,1.771.809C327.887,402.932,327.4,402.2,326.817,402.2Z" transform="translate(-261.731 -216.241)" fill="#fff"/>
      <path id="Path_987" data-name="Path 987" d="M322.675,214.912,318,214.09l2.414,5.446s4.287,0,4.1-2.242Z" transform="translate(-258.787 -148.036)" fill="#e4897b"/>
      <path id="Path_988" data-name="Path 988" d="M312.45,161.873l2.21,4.4,3.714-1.694-2.414-5.44Z" transform="translate(-256.772 -93.086)" fill="#e4897b"/>
      <path id="Path_989" data-name="Path 989" d="M328.115,331.907l-7.051,6.644-2.274-2.44,8.07-7.351Z" transform="translate(-259.074 -154.663)" fill="#ffa31d"/>
      <path id="Path_990" data-name="Path 990" d="M328.115,331.907l-7.051,6.644-2.274-2.44,8.07-7.351Z" transform="translate(-259.074 -154.663)" fill="#fff" opacity="0.6"/>
      <path id="Path_991" data-name="Path 991" d="M315.53,342.3h-9.344l-.516-3.28,10.313.51Z" transform="translate(-254.311 -158.387)" fill="#ffa31d"/>
      <path id="Path_992" data-name="Path 992" d="M315.53,342.3h-9.344l-.516-3.28,10.313.51Z" transform="translate(-254.311 -158.387)" fill="#fff" opacity="0.6"/>
      <path id="Path_993" data-name="Path 993" d="M324.846,156.49c4.459.637,9.026,16.128,9.026,16.128l-9.555,5.3a111.056,111.056,0,0,1-5.733-12.829C316.642,159.363,320.075,155.79,324.846,156.49Z" transform="translate(-258.798 -127.094)" fill="#ffa31d"/>
      <path id="Path_994" data-name="Path 994" d="M324.846,156.49c4.459.637,9.026,16.128,9.026,16.128l-9.555,5.3a111.056,111.056,0,0,1-5.733-12.829C316.642,159.363,320.075,155.79,324.846,156.49Z" transform="translate(-258.798 -127.094)" fill="#fff" opacity="0.7"/>
      <path id="Path_995" data-name="Path 995" d="M302.471,104.4l-1.911,2.032.936,1.962,1.522.07,1.3-1.873Z" transform="translate(-252.456 -73.214)" opacity="0.2"/>
      <path id="Path_996" data-name="Path 996" d="M300.136,165.07s-3.624,15.013-3.764,18.135c-.2,4.293,1.6,11.625,1.6,11.625a47.049,47.049,0,0,0,3.07-11.759c.522-5.663.134-14.822.369-18Z" transform="translate(-250.93 -130.24)" fill="#ffa31d"/>
      <path id="Path_997" data-name="Path 997" d="M300.136,165.07s-3.624,15.013-3.764,18.135c-.2,4.293,1.6,11.625,1.6,11.625a47.049,47.049,0,0,0,3.07-11.759c.522-5.663.134-14.822.369-18Z" transform="translate(-250.93 -130.24)" opacity="0.2"/>
      <path id="Path_998" data-name="Path 998" d="M303.56,156.94a8.28,8.28,0,0,1,1.223,3.892s7.949-2.8,7.574-6.911c0,0-1.127-.669-1.841-1.21C310.516,152.71,310.248,155.3,303.56,156.94Z" transform="translate(-253.545 -125.753)" fill="#ffa31d"/>
      <path id="Path_999" data-name="Path 999" d="M303.56,156.94a8.28,8.28,0,0,1,1.223,3.892s7.949-2.8,7.574-6.911c0,0-1.127-.669-1.841-1.21C310.516,152.71,310.248,155.3,303.56,156.94Z" transform="translate(-253.545 -125.753)" fill="#fff" opacity="0.6"/>
      <path id="Path_1000" data-name="Path 1000" d="M301.124,157.364a11.186,11.186,0,0,0-1.554,3.643s-3.6-2.433-2.516-6.491a13.432,13.432,0,0,1,2.032-.637A3.116,3.116,0,0,0,301.124,157.364Z" transform="translate(-251.109 -126.178)" fill="#ffa31d"/>
      <path id="Path_1001" data-name="Path 1001" d="M301.124,157.364a11.186,11.186,0,0,0-1.554,3.643s-3.6-2.433-2.516-6.491a13.432,13.432,0,0,1,2.032-.637A3.116,3.116,0,0,0,301.124,157.364Z" transform="translate(-251.109 -126.178)" fill="#fff" opacity="0.6"/>
    </g>
  </g>
</svg>
