<svg id="logo_header" xmlns="http://www.w3.org/2000/svg" width="272" height="65" viewBox="0 0 272 65">
  <rect id="Rectangle_2" data-name="Rectangle 2" width="272" height="65" fill="none"/>
  <g id="Group_74" data-name="Group 74" transform="translate(5.434 4.076)">
    <g id="Group_18" data-name="Group 18" transform="translate(0)">
      <g id="Group_13" data-name="Group 13">
        <g id="Group_12" data-name="Group 12">
          <path id="Path_4" data-name="Path 4" d="M35.979,50.918h6.964c1.043,0,1.18.207.783,1.151a3.416,3.416,0,0,0,.691,4.092,5.1,5.1,0,0,0,3.209,1.223,7.684,7.684,0,0,0,4.6-1.092c1.579-.88,3.182-1.719,4.767-2.589a.681.681,0,0,1,1.01.165c4.293,5.059,8.584,10.121,12.925,15.142a2.293,2.293,0,0,1-1.117,3.859,2.64,2.64,0,0,1-2.5-.806,2.321,2.321,0,0,1-1.376,2.543,2.558,2.558,0,0,1-2.951-.655A2.365,2.365,0,0,1,61.623,76.5a2.484,2.484,0,0,1-2.869-.573c-.195.16-.1.344-.106.5a2.4,2.4,0,0,1-3.321,2.013c-.355-.145-.405-.291-.215-.614a3.984,3.984,0,0,0-2.459-6.008,1,1,0,0,1-.644-.42,3.6,3.6,0,0,0-1.809-1.35.876.876,0,0,1-.547-.519,3.941,3.941,0,0,0-2.39-2.273.681.681,0,0,1-.5-.424c-.955-2.808-5.034-3.566-7.278-.965-.484.56-.873,1.3-1.493,1.62a5.351,5.351,0,0,1-2.3.092c-1.7.013-3.4.008-5.1,0a2.8,2.8,0,0,1-2.98-2.575,27.072,27.072,0,0,1,1.833-13.893A28.407,28.407,0,0,1,41.945,37.031,29.981,29.981,0,0,1,51.9,33.469a31.032,31.032,0,0,1,10.512.011A29.689,29.689,0,0,1,73.4,37.712c.376.238.577.214.808-.153a12.7,12.7,0,0,1,.845-1.147.918.918,0,0,1,1.687.218q1.622,4,3.207,8.016c.288.728-.145,1.309-.965,1.275-2.491-.105-4.981-.24-7.471-.362-.451-.022-.9-.035-1.355-.053a1.048,1.048,0,0,1-.986-.526.914.914,0,0,1,.21-1.057c.271-.348.526-.708.824-1.034.249-.273.229-.408-.1-.616a22.973,22.973,0,0,0-7.287-3,24.336,24.336,0,0,0-21.02,4.646,21.167,21.167,0,0,0-5.707,6.746C36.051,50.722,36.032,50.786,35.979,50.918Z" transform="translate(-27.397 -33.026)" fill="#ffa31d"/>
          <g id="Group_11" data-name="Group 11" transform="translate(5.801 12.405)">
            <g id="Group_10" data-name="Group 10">
              <g id="Group_8" data-name="Group 8">
                <path id="Path_5" data-name="Path 5" d="M51.241,99.56a24.641,24.641,0,0,0,31.43-2.2,21.815,21.815,0,0,0,5.892-9.582c.129-.419.04-.488-.384-.48-1.265.024-2.532.029-3.8,0a2.456,2.456,0,0,0-1.817.652c-.437.4-.57.374-.955-.077Q74.636,79.7,67.664,71.526c-.715-.838-1.154-.923-2.147-.391q-3.052,1.636-6.1,3.278a5.025,5.025,0,0,1-4.424.314,1.358,1.358,0,0,1-.382-2.408c2.6-1.934,5.19-3.879,7.851-5.731a7.9,7.9,0,0,1,7.667-.816c3.921,1.466,7.859,2.893,11.784,4.35a8.452,8.452,0,0,0,3.017.53c2.007-.01,4.014,0,6.022,0a2.843,2.843,0,0,1,3.093,2.171,27.255,27.255,0,0,1-.7,18.775,28.263,28.263,0,0,1-10.541,12.992,29.7,29.7,0,0,1-12.919,4.921,30.4,30.4,0,0,1-17.048-2.517,25.379,25.379,0,0,1-4.848-2.844c-.3-.226-.487-.294-.733.068-.265.39-.621.723-.906,1.1a1.016,1.016,0,0,1-1.023.441c-.448-.062-.614-.392-.734-.747q-1.143-3.39-2.276-6.783c-.138-.412-.28-.824-.416-1.238-.281-.858.169-1.4,1.112-1.32.99.087,1.977.2,2.966.3,1.94.2,3.883.382,5.821.595.939.1,1.221.79.645,1.52C52.056,98.58,51.647,99.064,51.241,99.56Z" transform="translate(-41.821 -65.149)" fill="#222f3e"/>
              </g>
              <g id="Group_9" data-name="Group 9" transform="translate(6.042 20.844)">
                <path id="Path_6" data-name="Path 6" d="M65.415,123.835c.1.27-.287.616-.057.844s.6-.076.923-.064a2.027,2.027,0,0,1,1.947,1.707c.03.308.042.41.426.315a1.933,1.933,0,0,1,2.123.679,1.88,1.88,0,0,1,.165,2.2,3.137,3.137,0,0,1-.912,1.21,2.126,2.126,0,0,1-3.2-1.082c-.105-.326-.207-.355-.52-.258a2.1,2.1,0,0,1-2.8-1.839c-.027-.374-.15-.372-.462-.285a2.17,2.17,0,0,1-2.818-2.034c.005-.314.01-.435-.385-.294a2.266,2.266,0,0,1-2.653-.875,1.859,1.859,0,0,1,.211-2.4c.545-.648,1.089-1.3,1.662-1.921a2.074,2.074,0,0,1,2.478-.354,1.906,1.906,0,0,1,.836,2.315c-.044.119-.212.241-.069.372s.269-.02.4-.06A2,2,0,0,1,65.415,123.835Z" transform="translate(-56.844 -119.127)" fill="#222f3e"/>
              </g>
            </g>
          </g>
        </g>
      </g>
    </g>
    <g id="Group_73" data-name="Group 73" transform="translate(77.224 0)">
      <g id="Group_71" data-name="Group 71" transform="translate(0 42.041)">
        <g id="Group_14" data-name="Group 14">
          <path id="Path_7" data-name="Path 7" d="M68.446,236.215H63.958l-2.5,12.413H59.515l2.5-12.413H57.527l.364-1.723H68.81Z" transform="translate(-57.527 -233.815)" fill="#222f3e"/>
          <path id="Path_8" data-name="Path 8" d="M73.3,237.737l-.641,1.682a3.173,3.173,0,0,0-1.389-.328c-1.988,0-3.183,2.031-3.7,4.554l-.7,3.509H64.99l1.944-9.582h1.881l-.449,2.175c.855-1.682,1.966-2.379,3.29-2.379A3.357,3.357,0,0,1,73.3,237.737Z" transform="translate(-53.235 -232.341)" fill="#222f3e"/>
          <path id="Path_9" data-name="Path 9" d="M83.687,237.572l-1.923,9.582H79.905l.277-1.519a5.1,5.1,0,0,1-3.889,1.724c-2.734,0-4.593-1.991-3.974-5.006a6.171,6.171,0,0,1,5.982-4.985c1.5,0,2.8.573,3.228,1.7l.3-1.5Zm-2.821,4.76a2.629,2.629,0,0,0-2.734-3.282,4.1,4.1,0,0,0-3.932,3.282,2.593,2.593,0,0,0,2.585,3.346A4.239,4.239,0,0,0,80.866,242.332Z" transform="translate(-49.088 -232.341)" fill="#222f3e"/>
          <path id="Path_10" data-name="Path 10" d="M95.039,234.044l-2.991,14.813H90.189l.277-1.519a5.1,5.1,0,0,1-3.889,1.724c-2.734,0-4.593-1.991-3.974-5.007a6.172,6.172,0,0,1,5.982-4.985c1.5,0,2.8.573,3.227,1.7l1.367-6.731Zm-3.889,9.992a2.629,2.629,0,0,0-2.734-3.282,4.094,4.094,0,0,0-3.932,3.282,2.593,2.593,0,0,0,2.586,3.346A4.237,4.237,0,0,0,91.15,244.036Z" transform="translate(-43.173 -234.044)" fill="#222f3e"/>
          <path id="Path_11" data-name="Path 11" d="M102.746,243.134h-8.12c-.043,1.7,1.047,2.544,2.756,2.544a4.054,4.054,0,0,0,3.205-1.458l1.517.617a6.411,6.411,0,0,1-5.127,2.523c-2.843,0-4.722-1.991-4.1-5.028a6.224,6.224,0,0,1,6.132-4.964c2.842,0,4.573,1.928,3.952,4.964A5.39,5.39,0,0,1,102.746,243.134Zm-1.5-1.54a2.286,2.286,0,0,0-2.585-2.544,3.713,3.713,0,0,0-3.7,2.544Z" transform="translate(-37.265 -232.341)" fill="#222f3e"/>
          <path id="Path_12" data-name="Path 12" d="M108.3,241.639a9.422,9.422,0,0,1,8.933-7.242,5.909,5.909,0,0,1,5.062,2.4l-1.644,1.149a4.4,4.4,0,0,0-3.739-1.826,7.1,7.1,0,0,0-6.666,5.517,4.366,4.366,0,0,0,4.4,5.519,6.821,6.821,0,0,0,4.508-1.826l1.175,1.15a8.967,8.967,0,0,1-6.025,2.4A5.818,5.818,0,0,1,108.3,241.639Z" transform="translate(-28.411 -233.863)" fill="#222f3e"/>
          <path id="Path_13" data-name="Path 13" d="M130.658,237.572l-1.922,9.582h-1.86l.279-1.519a5.1,5.1,0,0,1-3.889,1.724c-2.734,0-4.595-1.991-3.974-5.006a6.171,6.171,0,0,1,5.982-4.985c1.5,0,2.8.573,3.226,1.7l.3-1.5Zm-2.82,4.76a2.63,2.63,0,0,0-2.736-3.282,4.1,4.1,0,0,0-3.932,3.282,2.594,2.594,0,0,0,2.586,3.346A4.241,4.241,0,0,0,127.838,242.332Z" transform="translate(-22.072 -232.341)" fill="#222f3e"/>
          <path id="Path_14" data-name="Path 14" d="M129.206,244.3h1.731c-.129.821.491,1.5,1.709,1.5,1.26,0,2.093-.554,2.263-1.334.151-.718-.362-1.066-1.131-1.251l-1.282-.309c-1.582-.429-2.372-1.21-2.073-2.748a3.882,3.882,0,0,1,3.974-2.79c1.689,0,3.268.861,2.884,2.79h-1.794c.128-.74-.556-1.231-1.347-1.231a1.815,1.815,0,0,0-1.879,1.292c-.129.656.447,1.006,1.046,1.15l1.41.349c1.966.491,2.245,1.682,2.03,2.769-.364,1.785-2.371,2.872-4.443,2.872C130.509,247.36,128.907,246.272,129.206,244.3Z" transform="translate(-16.322 -232.341)" fill="#222f3e"/>
          <path id="Path_15" data-name="Path 15" d="M147.592,243.319l-1.112,5.539h-1.859l1.09-5.436c.321-1.6-.491-2.585-1.881-2.585a3.574,3.574,0,0,0-3.631,2.83l-1.047,5.191h-1.86l2.993-14.813h1.859l-1.345,6.69a4.789,4.789,0,0,1,3.653-1.662C146.93,239.072,148.168,240.631,147.592,243.319Z" transform="translate(-11.651 -234.044)" fill="#222f3e"/>
          <path id="Path_16" data-name="Path 16" d="M150.122,234.044h1.859l-2.991,14.813h-1.86Z" transform="translate(-5.993 -234.044)" fill="#222f3e"/>
          <path id="Path_17" data-name="Path 17" d="M162.485,243.134h-8.118c-.044,1.7,1.046,2.544,2.755,2.544a4.052,4.052,0,0,0,3.205-1.458l1.517.617a6.406,6.406,0,0,1-5.127,2.523,3.913,3.913,0,0,1-4.1-5.028,6.224,6.224,0,0,1,6.132-4.964c2.843,0,4.573,1.928,3.954,4.964A5.4,5.4,0,0,1,162.485,243.134Zm-1.495-1.54a2.287,2.287,0,0,0-2.586-2.544,3.714,3.714,0,0,0-3.7,2.544Z" transform="translate(-2.907 -232.341)" fill="#222f3e"/>
          <path id="Path_18" data-name="Path 18" d="M161.864,244.3h1.73c-.128.821.492,1.5,1.711,1.5,1.26,0,2.093-.554,2.263-1.334.15-.718-.362-1.066-1.132-1.251l-1.282-.309c-1.58-.429-2.371-1.21-2.071-2.748a3.882,3.882,0,0,1,3.974-2.79c1.687,0,3.268.861,2.884,2.79h-1.8c.129-.74-.555-1.231-1.345-1.231a1.817,1.817,0,0,0-1.881,1.292c-.128.656.449,1.006,1.047,1.15l1.41.349c1.966.491,2.243,1.682,2.03,2.769-.364,1.785-2.372,2.872-4.445,2.872C163.167,247.36,161.565,246.272,161.864,244.3Z" transform="translate(2.461 -232.341)" fill="#222f3e"/>
          <path id="Path_19" data-name="Path 19" d="M169.814,244.3h1.731c-.129.821.492,1.5,1.709,1.5,1.262,0,2.093-.554,2.265-1.334.15-.718-.364-1.066-1.133-1.251l-1.282-.309c-1.581-.429-2.372-1.21-2.073-2.748a3.884,3.884,0,0,1,3.976-2.79c1.687,0,3.268.861,2.884,2.79h-1.8c.129-.74-.555-1.231-1.345-1.231a1.816,1.816,0,0,0-1.881,1.292c-.128.656.449,1.006,1.047,1.15l1.41.349c1.966.491,2.243,1.682,2.03,2.769-.364,1.785-2.372,2.872-4.445,2.872C171.117,247.36,169.515,246.272,169.814,244.3Z" transform="translate(7.034 -232.341)" fill="#222f3e"/>
        </g>
      </g>
      <g id="Group_72" data-name="Group 72">
        <g id="Group_16" data-name="Group 16">
          <path id="Path_20" data-name="Path 20" d="M28.739,198.059H41.655c9.422,0,14.924,6.89,14.924,15.892,0,8.956-5.5,15.754-14.924,15.754H28.739ZM41.655,224.7c5.979,0,9.04-4.869,9.04-10.748,0-5.924-3.061-10.885-9.04-10.885H34.576V224.7Z" transform="translate(-28.739 -196.773)" fill="#222f3e"/>
          <path id="Path_21" data-name="Path 21" d="M77.994,206.535v21.448H72.445V225.09c-1.531,2.3-4.687,3.352-7.413,3.352a11.186,11.186,0,0,1-.049-22.368c2.822,0,5.932,1.057,7.463,3.308v-2.847ZM72.35,217.191a6.3,6.3,0,0,0-6.458-6.155,6.106,6.106,0,0,0-6.266,6.155,6.183,6.183,0,0,0,6.266,6.246A6.259,6.259,0,0,0,72.35,217.191Z" transform="translate(-22.036 -195.051)" fill="#222f3e"/>
          <path id="Path_22" data-name="Path 22" d="M101.092,206.535v21.448H95.544V225.09c-1.531,2.3-4.688,3.352-7.414,3.352a11.186,11.186,0,0,1-.048-22.368c2.822,0,5.932,1.057,7.462,3.308v-2.847Zm-5.645,10.656a6.3,6.3,0,0,0-6.458-6.155,6.106,6.106,0,0,0-6.266,6.155,6.183,6.183,0,0,0,6.266,6.246A6.259,6.259,0,0,0,95.447,217.191Z" transform="translate(-15.914 -195.051)" fill="#222f3e"/>
          <path id="Path_23" data-name="Path 23" d="M115.538,229.932l-8.706-9.737v9.737h-5.548V197h5.548v18.326l6.41-6.842h7.222l-9.088,9.369,11.193,12.079Z" transform="translate(-9.511 -197)" fill="#222f3e"/>
          <path id="Path_24" data-name="Path 24" d="M141.227,219.12H123.96c.622,2.985,3.013,4.5,6.314,4.5a7.563,7.563,0,0,0,6.075-2.664l3.683,2.71c-2.057,3.123-5.979,4.776-10.044,4.776-6.7,0-11.766-4.5-11.766-11.206,0-6.845,5.356-11.162,11.718-11.162,6.41,0,11.432,4.272,11.432,10.977A17.418,17.418,0,0,1,141.227,219.12Zm-5.406-3.721c-.335-2.94-2.678-4.639-5.788-4.639-3.013,0-5.405,1.377-6.075,4.639Z" transform="translate(-5.023 -195.051)" fill="#222f3e"/>
          <path id="Path_25" data-name="Path 25" d="M139.313,221.278h5.214c0,1.47,1.34,2.847,3.684,2.847,2.2,0,3.634-.965,3.634-2.342,0-1.194-.956-1.745-2.63-2.113l-2.966-.734c-5.022-1.286-6.314-3.859-6.314-6.569,0-3.353,3.443-6.292,8.323-6.292,3.97,0,8.467,1.883,8.419,6.706h-5.309c0-1.516-1.387-2.434-2.965-2.434-1.722,0-2.918.918-2.918,2.25,0,1.1,1.1,1.746,2.392,2.021l3.586.918c5.024,1.24,5.932,4.272,5.932,6.247,0,4.363-4.544,6.659-9.088,6.659C143.858,228.443,139.409,225.871,139.313,221.278Z" transform="translate(0.568 -195.051)" fill="#222f3e"/>
          <path id="Path_26" data-name="Path 26" d="M179.115,217.9v12.033h-5.549V218.4c0-3.4-2.152-5.144-4.639-5.144-2.535,0-5.693,1.331-5.693,5.465v11.207h-5.548V197h5.548v14.744c1.1-2.573,4.688-3.721,6.936-3.721C175.91,208.024,179.115,211.652,179.115,217.9Z" transform="translate(5.438 -197)" fill="#222f3e"/>
        </g>
      </g>
    </g>
  </g>
</svg>
