<svg xmlns="http://www.w3.org/2000/svg" width="39.006" height="25.85" viewBox="0 0 39.006 25.85">
  <g id="Group_1663" data-name="Group 1663" transform="translate(0 0)">
    <path id="Path_2937" data-name="Path 2937" d="M5157.78,207.754a6.73,6.73,0,1,1,6.729-6.73,6.738,6.738,0,0,1-6.729,6.73m0-12.491a5.761,5.761,0,1,0,5.761,5.761,5.767,5.767,0,0,0-5.761-5.761" transform="translate(-5125.504 -181.904)" fill="#1a1818"/>
    <path id="Path_2938" data-name="Path 2938" d="M5202.157,284.133H5195.9a.485.485,0,0,1,0-.969h6.255a.485.485,0,0,1,0,.969" transform="translate(-5166.753 -264.529)" fill="#1a1818"/>
    <path id="Path_2939" data-name="Path 2939" d="M5240.4,245.886a.484.484,0,0,1-.484-.485v-6.255a.484.484,0,1,1,.969,0V245.4a.485.485,0,0,1-.484.485" transform="translate(-5208.128 -223.154)" fill="#1a1818"/>
    <path id="Path_2940" data-name="Path 2940" d="M4811.878,41.718h-21.026a3.321,3.321,0,0,1-3.317-3.317V21.31a3.321,3.321,0,0,1,3.317-3.317H4817.9a3.322,3.322,0,0,1,3.317,3.317v7.479a.485.485,0,0,1-.969,0V21.31a2.351,2.351,0,0,0-2.348-2.348h-27.046a2.351,2.351,0,0,0-2.348,2.348V38.4a2.351,2.351,0,0,0,2.348,2.348h21.026a.485.485,0,0,1,0,.969" transform="translate(-4787.535 -17.993)" fill="#1a1818"/>
    <path id="Path_2941" data-name="Path 2941" d="M4788.021,206.842a.484.484,0,0,1-.3-.866l6.738-5.281a3.108,3.108,0,0,1,3.842,0l3.106,2.434a.484.484,0,0,1-.6.762l-3.107-2.434a2.141,2.141,0,0,0-2.646,0l-6.738,5.281a.488.488,0,0,1-.3.1" transform="translate(-4787.537 -187.238)" fill="#1a1818"/>
    <path id="Path_2942" data-name="Path 2942" d="M4944.687,139.66a.484.484,0,0,1-.3-.866l11.547-9.05a3.108,3.108,0,0,1,3.842,0l3.009,2.359a.484.484,0,0,1-.6.762l-3.011-2.359a2.14,2.14,0,0,0-2.647,0l-11.547,9.05a.484.484,0,0,1-.3.1" transform="translate(-4933.193 -121.273)" fill="#1a1818"/>
    <path id="Path_2943" data-name="Path 2943" d="M4896.92,81.2a2.607,2.607,0,1,1,2.607-2.607,2.61,2.61,0,0,1-2.607,2.607m0-4.244a1.638,1.638,0,1,0,1.638,1.638,1.639,1.639,0,0,0-1.638-1.638" transform="translate(-4886.81 -71.908)" fill="#1a1818"/>
  </g>
</svg>
