<svg xmlns="http://www.w3.org/2000/svg" width="176.698" height="251.212" viewBox="0 0 176.698 251.212">
  <g id="s" transform="translate(-126.651 -275.476)">
    <g id="freepik--Device--inject-5" transform="translate(126.651 275.476)">
      <path id="Path_2028" data-name="Path 2028" d="M95.177,74.24h5.7a9.773,9.773,0,0,0-9.869,10.4l9.076,173.192a11.122,11.122,0,0,0,10.944,10.381h-5.7a11.077,11.077,0,0,1-10.944-10.381L85.323,84.643a9.765,9.765,0,0,1,9.854-10.4Z" transform="translate(-85.302 -74.239)" fill="#263238"/>
      <path id="Path_2029" data-name="Path 2029" d="M95.177,74.24h5.7a9.773,9.773,0,0,0-9.869,10.4l9.076,173.192a11.122,11.122,0,0,0,10.944,10.381h-5.7a11.077,11.077,0,0,1-10.944-10.381L85.323,84.643a9.765,9.765,0,0,1,9.854-10.4Z" transform="translate(-85.302 -74.239)" fill="#fff" opacity="0.3"/>
      <path id="Path_2030" data-name="Path 2030" d="M109.633,268.238h69.861a9.773,9.773,0,0,0,9.854-10.381L180.272,84.65A11.122,11.122,0,0,0,169.328,74.27H99.467A9.773,9.773,0,0,0,89.613,84.65l9.076,173.192a11.122,11.122,0,0,0,10.944,10.4Z" transform="translate(-86.412 -74.247)" fill="#263238"/>
      <path id="Path_2031" data-name="Path 2031" d="M186.844,259.168,177.768,85.976a7.726,7.726,0,0,0-7.615-7.237H155.917l.185,3.589a3.1,3.1,0,0,1-3.144,3.322H119.23a3.707,3.707,0,0,1-3.707-3.492l-.178-3.418H100.3a6.443,6.443,0,0,0-6.525,6.866l9.061,173.214a7.726,7.726,0,0,0,7.615,7.237h69.868a6.429,6.429,0,0,0,6.525-6.888Z" transform="translate(-87.489 -75.402)" fill="#ffa31d"/>
      <path id="Path_2032" data-name="Path 2032" d="M186.844,259.168,177.768,85.976a7.726,7.726,0,0,0-7.615-7.237H155.917l.185,3.589a3.1,3.1,0,0,1-3.144,3.322H119.23a3.707,3.707,0,0,1-3.707-3.492l-.178-3.418H100.3a6.443,6.443,0,0,0-6.525,6.866l9.061,173.214a7.726,7.726,0,0,0,7.615,7.237h69.868a6.429,6.429,0,0,0,6.525-6.888Z" transform="translate(-87.489 -75.402)" opacity="0.1"/>
      <g id="Group_923" data-name="Group 923" transform="translate(28.011 128.564)" opacity="0.8">
        <path id="Path_2033" data-name="Path 2033" d="M174.753,251.419h-49.56c-2.439,0-2.966-3.789-.526-3.789h49.56C176.666,247.63,177.192,251.419,174.753,251.419Z" transform="translate(-123.079 -247.63)" fill="#fff"/>
        <path id="Path_2034" data-name="Path 2034" d="M167.993,264.249h-42.13c-2.439,0-2.966-3.789-.526-3.789h42.13C169.906,260.46,170.432,264.249,167.993,264.249Z" transform="translate(-123.252 -250.947)" fill="#fff"/>
        <path id="Path_2035" data-name="Path 2035" d="M174.07,277.079H126.542c-2.439,0-2.966-3.789-.534-3.789h47.528C175.983,273.29,176.5,277.079,174.07,277.079Z" transform="translate(-123.428 -254.264)" fill="#fff"/>
        <path id="Path_2036" data-name="Path 2036" d="M160.436,289.909H127.262c-2.439,0-2.966-3.789-.534-3.789h33.158c2.439,0,2.966,3.789.534,3.789Z" transform="translate(-123.614 -257.581)" fill="#fff"/>
      </g>
      <path id="Path_2049" data-name="Path 2049" d="M144.769,132.76l5.517,4.76,6.873-1.49,2.528,6.762,6.881,2.18-1.127,6.948,5.042,5.272-4.493,5.264,1.861,6.948-6.651,2.18-1.824,6.762-7.029-1.49-5.02,4.768-5.517-4.768-6.866,1.49-2.536-6.762-6.881-2.18,1.134-6.948-5.042-5.264,4.486-5.272-1.854-6.948,6.644-2.18,1.831-6.762,7.022,1.49Z" transform="translate(-94.691 -89.369)" fill="#fff" opacity="0.8"/>
      <path id="Path_2050" data-name="Path 2050" d="M155.492,165.516h-2.877l-.245-4.686h2.877Z" transform="translate(-102.641 -96.626)" fill="#263238"/>
      <path id="Path_2051" data-name="Path 2051" d="M155.492,165.516h-2.877l-.245-4.686h2.877Z" transform="translate(-102.641 -96.626)" fill="#fff" opacity="0.2"/>
      <path id="Path_2052" data-name="Path 2052" d="M136.679,163.325l-.445-8.445H134.61l.46,8.9a2.966,2.966,0,0,0,1.283,2.276l2.966,2.039-.1-1.876-.667-.274A3.01,3.01,0,0,1,136.679,163.325Z" transform="translate(-98.05 -95.087)" fill="#263238"/>
      <path id="Path_2053" data-name="Path 2053" d="M136.679,163.325l-.445-8.445H134.61l.46,8.9a2.966,2.966,0,0,0,1.283,2.276l2.966,2.039-.1-1.876-.667-.274A3.01,3.01,0,0,1,136.679,163.325Z" transform="translate(-98.05 -95.087)" fill="#fff" opacity="0.2"/>
      <path id="Path_2054" data-name="Path 2054" d="M171.02,163.325l-.437-8.445h1.624l.467,8.9a2.654,2.654,0,0,1-1.045,2.276l-2.721,2.039-.1-1.876.638-.274a2.64,2.64,0,0,0,1.572-2.617Z" transform="translate(-106.891 -95.087)" fill="#263238"/>
      <path id="Path_2055" data-name="Path 2055" d="M171.02,163.325l-.437-8.445h1.624l.467,8.9a2.654,2.654,0,0,1-1.045,2.276l-2.721,2.039-.1-1.876.638-.274a2.64,2.64,0,0,0,1.572-2.617Z" transform="translate(-106.891 -95.087)" fill="#fff" opacity="0.2"/>
      <path id="Path_2056" data-name="Path 2056" d="M166.447,189.995l-14.9-4.634-.526-9.721h-2.877l.5,9.691-14.384,4.664a.549.549,0,0,0-.378.556h0a.615.615,0,0,0,.741.571l14.637-3.641.371,3.114a.793.793,0,0,0,.779.7.741.741,0,0,0,.741-.7v-3.114l15.022,3.641a.549.549,0,0,0,.69-.571.623.623,0,0,0-.423-.556Z" transform="translate(-97.863 -100.455)" fill="#263238"/>
      <path id="Path_2057" data-name="Path 2057" d="M166.447,189.995l-14.9-4.634-.526-9.721h-2.877l.5,9.691-14.384,4.664a.549.549,0,0,0-.378.556h0a.615.615,0,0,0,.741.571l14.637-3.641.371,3.114a.793.793,0,0,0,.779.7.741.741,0,0,0,.741-.7v-3.114l15.022,3.641a.549.549,0,0,0,.69-.571.623.623,0,0,0-.423-.556Z" transform="translate(-97.863 -100.455)" fill="#fff" opacity="0.2"/>
      <path id="Path_2058" data-name="Path 2058" d="M134.826,197.868a1.164,1.164,0,0,1-1.172,1.238,1.327,1.327,0,0,1-1.3-1.238,1.164,1.164,0,0,1,1.172-1.238,1.32,1.32,0,0,1,1.3,1.238Z" transform="translate(-97.465 -105.881)" fill="#263238"/>
      <path id="Path_2059" data-name="Path 2059" d="M157.076,197.868a1.164,1.164,0,0,1-1.172,1.238,1.327,1.327,0,0,1-1.3-1.238,1.172,1.172,0,0,1,1.179-1.238,1.312,1.312,0,0,1,1.3,1.238Z" transform="translate(-103.217 -105.881)" fill="#263238"/>
      <path id="Path_2060" data-name="Path 2060" d="M179.336,197.868a1.164,1.164,0,0,1-1.179,1.238,1.312,1.312,0,0,1-1.3-1.238,1.164,1.164,0,0,1,1.172-1.238,1.327,1.327,0,0,1,1.3,1.238Z" transform="translate(-108.972 -105.881)" fill="#263238"/>
      <path id="Path_2061" data-name="Path 2061" d="M136.506,153.788c.044.823-1.268,1.253-2.921,1.253s-3.01-.43-3.055-1.253,1.3-.779,2.966-.779S136.469,153,136.506,153.788Z" transform="translate(-96.994 -94.604)" fill="#263238"/>
      <path id="Path_2062" data-name="Path 2062" d="M169.32,153.788c.044.823,1.4,1.253,3.055,1.253s2.966-.43,2.921-1.253-1.379-.779-3.033-.779S169.275,153,169.32,153.788Z" transform="translate(-107.023 -94.604)" fill="#263238"/>
      <path id="Path_2063" data-name="Path 2063" d="M163.084,168.041c.185,3.522-5.442,5.361-12.5,5.361s-12.879-1.839-13.065-5.361,5.546-3.322,12.6-3.322S162.891,164.519,163.084,168.041Z" transform="translate(-98.8 -97.631)" fill="#263238"/>
      <path id="Path_2064" data-name="Path 2064" d="M153.221,154.237c2.009-.593,6.384-1.349,6.985-3.351,1.179-3.885-1.735-14.674-4.738-17.669a8.275,8.275,0,0,0-3.092-1.483,13.065,13.065,0,0,0-5.62,0,7.363,7.363,0,0,0-2.966,1.483c-2.684,2.966-4.449,13.784-2.884,17.669.808,2,5.264,2.758,7.333,3.351a9.068,9.068,0,0,0,4.983,0Z" transform="translate(-99.525 -89.024)" fill="#263238"/>
      <path id="Path_2065" data-name="Path 2065" d="M173.509,228.672H120.271a5.457,5.457,0,0,1-5.39-5.116l-.274-5.19a4.812,4.812,0,0,1,4.857-5.116H172.73a5.457,5.457,0,0,1,5.39,5.116l.274,5.19a4.812,4.812,0,0,1-4.886,5.116Z" transform="translate(-92.876 -110.178)" fill="#fff" opacity="0.8"/>
      <path id="Path_2066" data-name="Path 2066" d="M125.485,224.374h-2.743l-.46,1.268h-1.4l2.328-5.932h1.349l2.966,5.932h-1.438ZM125,223.336l-1.068-2.306-.816,2.269Z" transform="translate(-94.5 -111.848)" fill="#ffa31d"/>
      <path id="Path_2067" data-name="Path 2067" d="M134.177,219.9a2.091,2.091,0,0,1,1.3,1.891,1.98,1.98,0,0,1-.252,1.134,1.824,1.824,0,0,1-.853.741,3.27,3.27,0,0,1-1.349.26h-1.194l.082,1.631h-1.364l-.311-5.932H132.8A3.441,3.441,0,0,1,134.177,219.9Zm-.363,2.647a.86.86,0,0,0,.282-.741.979.979,0,0,0-.363-.741,1.483,1.483,0,0,0-.949-.26h-1.112l.1,2.054h1.12a1.364,1.364,0,0,0,.919-.289Z" transform="translate(-96.92 -111.827)" fill="#ffa31d"/>
      <path id="Path_2068" data-name="Path 2068" d="M142.407,219.9a2.091,2.091,0,0,1,1.3,1.891,1.98,1.98,0,0,1-.252,1.134,1.824,1.824,0,0,1-.853.741,3.27,3.27,0,0,1-1.349.26h-1.194l.089,1.631h-1.372l-.311-5.932h2.558A3.441,3.441,0,0,1,142.407,219.9Zm-.363,2.647a.86.86,0,0,0,.282-.741.994.994,0,0,0-.356-.741,1.483,1.483,0,0,0-.956-.26H139.9l.1,2.054h1.12a1.364,1.364,0,0,0,.919-.289Z" transform="translate(-99.048 -111.827)" fill="#ffa31d"/>
      <path id="Path_2069" data-name="Path 2069" d="M146.7,219.68h1.372l.252,4.8h2.966l.059,1.112h-4.338Z" transform="translate(-101.175 -111.84)" fill="#ffa31d"/>
      <path id="Path_2070" data-name="Path 2070" d="M155.523,223.5l.111,2.1h-1.372l-.111-2.113-2.491-3.8h1.483l1.72,2.632,1.446-2.632h1.342Z" transform="translate(-102.458 -111.84)" fill="#ffa31d"/>
      <path id="Path_2071" data-name="Path 2071" d="M169.108,219.68l.311,5.932h-1.127l-3.136-3.589.185,3.589h-1.349l-.311-5.932h1.134l3.129,3.6-.193-3.6Z" transform="translate(-105.565 -111.84)" fill="#ffa31d"/>
      <path id="Path_2072" data-name="Path 2072" d="M174.33,225.264a3.218,3.218,0,0,1-1.216-1.1,3.077,3.077,0,0,1-.5-1.564,2.892,2.892,0,0,1,.334-1.564,2.714,2.714,0,0,1,1.1-1.1,3.292,3.292,0,0,1,1.639-.4,3.515,3.515,0,0,1,1.676.4,3.218,3.218,0,0,1,1.216,1.1,3.085,3.085,0,0,1,.5,1.564,2.833,2.833,0,0,1-.341,1.565,2.788,2.788,0,0,1-1.1,1.1,3.314,3.314,0,0,1-1.639.4,3.567,3.567,0,0,1-1.683-.4Zm2.558-1.008a1.631,1.631,0,0,0,.63-.675,1.913,1.913,0,0,0,.185-.979,2.158,2.158,0,0,0-.289-.979,1.861,1.861,0,0,0-.741-.675,1.987,1.987,0,0,0-.956-.237,1.861,1.861,0,0,0-.934.237,1.631,1.631,0,0,0-.63.675,1.928,1.928,0,0,0-.185.979,1.965,1.965,0,0,0,.289.979,1.9,1.9,0,0,0,.7.675,1.958,1.958,0,0,0,.964.237,1.787,1.787,0,0,0,.971-.237Z" transform="translate(-107.874 -111.804)" fill="#ffa31d"/>
      <path id="Path_2073" data-name="Path 2073" d="M191.041,219.68l-1.624,5.932h-1.483l-1.483-4-1.134,4h-1.483l-2.224-5.932h1.424l1.55,4.16,1.179-4.16h1.268l1.572,4.189,1.157-4.189Z" transform="translate(-110.201 -111.84)" fill="#ffa31d"/>
      <path id="Path_2074" data-name="Path 2074" d="M112.79,265.582a7.414,7.414,0,0,0,2.6.475h34.478L184.349,117.7l-1.661-31.72a7.726,7.726,0,0,0-7.615-7.237H160.837l.185,3.589a3.1,3.1,0,0,1-3.144,3.322h-3.262Z" transform="translate(-92.408 -75.403)" fill="#fff" opacity="0.2"/>
      <path id="Path_2075" data-name="Path 2075" d="M172.934,284.252l27.279-117.359-.927-17.773L167.87,284.252Z" transform="translate(-106.648 -93.598)" fill="#fff" opacity="0.2"/>
    </g>
    <g id="freepik--Character--inject-5" transform="translate(204.333 313.485)">
      <path id="Path_2087" data-name="Path 2087" d="M304.137,232.221l1.1,3.285c.156.46-.7,3.781-.371,4.582l1.98,4.152a2.113,2.113,0,0,0,1.216.971h0a3.878,3.878,0,0,0,2.395-.43l1.06-.556a1.483,1.483,0,0,0,.816-1.438,35.153,35.153,0,0,0-.326-5.19,1.483,1.483,0,0,0-.408-.675l-1.557-1.483a2.1,2.1,0,0,1-.467-.868l-.994-3.707a2.121,2.121,0,0,0-2.966-1.357l-.386.193A2.113,2.113,0,0,0,304.137,232.221Z" transform="translate(-219.537 -152.335)" fill="#ff8b7b"/>
      <path id="Path_2088" data-name="Path 2088" d="M208.963,215.1l-5.19,1.068a.682.682,0,0,1-.623.141l-6.673-1.861a.66.66,0,0,0-.445,0l-5.561,2.395a.66.66,0,0,0-.363.823h0a.667.667,0,0,0,.808.423l2.81-.793a.66.66,0,0,1,.741.26l2.477,3.581a.682.682,0,0,0,.475.282l2.825.3a.541.541,0,0,0,.267,0l5.116-1.624a.682.682,0,0,0,.208-.1l4.879-.564a.667.667,0,0,0,.1-.956l-.912-3.344a.66.66,0,0,0-.934-.03Z" transform="translate(-190.071 -148.486)" fill="#ff8b7b"/>
      <path id="Path_2089" data-name="Path 2089" d="M236.319,203.7c-.393,4.516-24.409,6.406-24.409,6.406l-1.12-5.828,17.862-5.428c-3.952-25,4.768-26.033,4.768-26.033S237.594,188.821,236.319,203.7Z" transform="translate(-195.427 -137.734)" fill="#ffa31d"/>
      <g id="Group_926" data-name="Group 926" transform="translate(15.363 35.086)" opacity="0.6">
        <path id="Path_2090" data-name="Path 2090" d="M236.319,203.7c-.393,4.516-24.409,6.406-24.409,6.406l-1.12-5.828,17.862-5.428c-3.952-25,4.768-26.033,4.768-26.033S237.594,188.821,236.319,203.7Z" transform="translate(-210.79 -172.82)" fill="#fff"/>
      </g>
      <path id="Path_2091" data-name="Path 2091" d="M251,387.7l.571,13.695,5.657-.237.779-13.754Z" transform="translate(-205.823 -193.21)" fill="#ff8b7b"/>
      <path id="Path_2092" data-name="Path 2092" d="M251.287,394.7l6.325-.267L258,387.4l-7.014.3Z" transform="translate(-205.82 -193.21)" fill="#263238" opacity="0.2"/>
      <path id="Path_2093" data-name="Path 2093" d="M243.24,235.319l5.012,118.531,8.156-.348s4.36-26.789,3.381-44.851c-.1-1.868-.741-6.555-.6-8.156a47.617,47.617,0,0,1,1.335-6.985c1.98-8.312,3.826-22.681,2.706-33.448,0,0,10.655-11.389,7.815-25.951Z" transform="translate(-203.817 -153.579)" fill="#ffa31d"/>
      <path id="Path_2094" data-name="Path 2094" d="M269.767,265.572l-2.706-5.932L265,260.6s-.222,9.113,3.374,26.263a97.537,97.537,0,0,0,.46-20.183S269.2,266.291,269.767,265.572Z" transform="translate(-209.441 -160.18)" opacity="0.2"/>
      <path id="Path_2095" data-name="Path 2095" d="M246.526,402.952a3.053,3.053,0,0,1-2.024-.475.615.615,0,0,1,0-.7.823.823,0,0,1,.5-.393c1.134-.341,3.559.964,3.663,1.023a.148.148,0,0,1,.082.163.163.163,0,0,1-.126.141A12.376,12.376,0,0,1,246.526,402.952Zm-1.12-1.3a1.038,1.038,0,0,0-.3.045.437.437,0,0,0-.319.237c-.111.2-.067.3,0,.349.326.437,2.054.408,3.322.222A7.415,7.415,0,0,0,245.406,401.647Z" transform="translate(-204.114 -196.81)" fill="#ffa31d"/>
      <path id="Path_2096" data-name="Path 2096" d="M249.207,402.119h-.037c-.823-.349-2.506-1.787-2.373-2.565,0-.185.141-.415.586-.467a1.224,1.224,0,0,1,.912.252,4.688,4.688,0,0,1,1.127,2.625.148.148,0,0,1-.074.148A.141.141,0,0,1,249.207,402.119Zm-1.735-2.729h-.1c-.289.037-.3.148-.319.193,0,.467,1.075,1.6,1.935,2.084a3.759,3.759,0,0,0-.956-2.076.816.816,0,0,0-.564-.193Z" transform="translate(-204.734 -196.229)" fill="#ffa31d"/>
      <path id="Path_2097" data-name="Path 2097" d="M247.437,401.808l7.467-.178a.608.608,0,0,1,.6.46l1.483,6.043a1.008,1.008,0,0,1-.741,1.216h-.208c-2.692,0-5.094-.074-8.445,0-3.952.1-2.966.549-7.585.741-2.8.1-3.389-3.07-2.224-3.255,5.42-.816,5.932-2.469,8-4.449A2.4,2.4,0,0,1,247.437,401.808Z" transform="translate(-202.26 -196.889)" fill="#263238"/>
      <path id="Path_2098" data-name="Path 2098" d="M306.28,386.224l3.945,13.131,5.428-1.631L313.005,384.2Z" transform="translate(-220.115 -192.383)" fill="#ff8b7b"/>
      <path id="Path_2099" data-name="Path 2099" d="M307.948,391.763l6.273-1.327-1.216-6.236-6.725,2.024Z" transform="translate(-220.115 -192.383)" fill="#263238" opacity="0.2"/>
      <path id="Path_2100" data-name="Path 2100" d="M257.8,239.617c7.333,27.709,36.065,111.843,36.065,111.843l7.9-1.817s-4-29.243-9.735-45.786c-.919-2.632-2.224-4.79-2.869-6.762-.793-2.506-.489-4.389-1.3-10.381-.942-6.91-2.321-15.971-3.908-23.067-.423-1.906-.7-3.537-.9-5.124-.237-1.861-.3-3.24-.475-7.563a58.618,58.618,0,0,0-4.886-19.211l-21.295.9S257.339,237.867,257.8,239.617Z" transform="translate(-207.216 -152.969)" fill="#ffa31d"/>
      <path id="Path_2101" data-name="Path 2101" d="M304.913,401a2.966,2.966,0,0,1-2.076,0,.608.608,0,0,1-.163-.69.845.845,0,0,1,.4-.489c1.031-.586,3.707.148,3.8.185a.156.156,0,0,1,.119.141.185.185,0,0,1-.1.163,12.322,12.322,0,0,1-1.98.69Zm-1.379-1.031a1.486,1.486,0,0,0-.3.119.46.46,0,0,0-.252.3c-.067.222,0,.311.059.349.415.356,2.091-.052,3.285-.519a7.415,7.415,0,0,0-2.8-.245Z" transform="translate(-219.171 -196.363)" fill="#ffa31d"/>
      <path id="Path_2102" data-name="Path 2102" d="M307.318,399.632a.1.1,0,0,1-.067,0c-.882-.148-2.84-1.186-2.892-1.972,0-.185.052-.437.475-.586a1.216,1.216,0,0,1,.942.044c1.023.482,1.653,2.224,1.683,2.306a.163.163,0,0,1-.037.163A.178.178,0,0,1,307.318,399.632Zm-2.3-2.284h-.1c-.274.1-.267.215-.267.259.074.46,1.4,1.32,2.35,1.6a3.833,3.833,0,0,0-1.394-1.809.83.83,0,0,0-.593-.067Z" transform="translate(-219.618 -195.692)" fill="#ffa31d"/>
      <path id="Path_2103" data-name="Path 2103" d="M305.983,398.415l7.244-1.831a.6.6,0,0,1,.682.311l2.8,5.561a1,1,0,0,1-.43,1.349,1.093,1.093,0,0,1-.2.074c-2.625.615-4.983,1.06-8.23,1.883-3.833.971-2.743,1.179-7.237,2.388-2.714.741-3.989-2.224-2.877-2.684,5.109-1.995,5.257-3.707,6.814-6.132A2.373,2.373,0,0,1,305.983,398.415Z" transform="translate(-217.8 -195.58)" fill="#263238"/>
      <g id="Group_927" data-name="Group 927" transform="translate(40.18 82.599)" opacity="0.2">
        <path id="Path_2104" data-name="Path 2104" d="M273.389,241.943l-.675-2.743c-2.6.526-5.027.912-7.244,1.179l.3,2.818C268.087,242.915,270.645,242.507,273.389,241.943Z" transform="translate(-249.743 -237.495)"/>
        <path id="Path_2105" data-name="Path 2105" d="M250.192,241.33a47.09,47.09,0,0,1-5.932-.46l.252,2.9a51.263,51.263,0,0,0,5.932.408Z" transform="translate(-244.26 -237.926)"/>
        <path id="Path_2106" data-name="Path 2106" d="M282.946,236.9q-2.8.741-5.376,1.335l.808,2.714c1.7-.386,3.463-.823,5.3-1.335Z" transform="translate(-252.872 -236.9)"/>
        <path id="Path_2107" data-name="Path 2107" d="M260.37,241.1c-2.269.208-4.308.3-6.11.3l.3,2.84c.741,0,1.483,0,2.224-.052,1.216-.052,2.514-.141,3.893-.274Z" transform="translate(-246.845 -237.986)"/>
      </g>
      <path id="Path_2108" data-name="Path 2108" d="M274.665,170.8l-10.951.46c-2.417,2.669-13.065,2.543-12.568.534l-11.055.467a2.469,2.469,0,0,0-2.306,1.683c-3.411,11.6,3.351,43.2,3.351,43.2-4.048,6.206,9.8,4.753,24.468,2.84s7.867-6.087,7.867-6.087c-.956-15.059,1.817-35.405,2.61-41.522a1.372,1.372,0,0,0-1.416-1.572Z" transform="translate(-202.158 -137.211)" fill="#ffa31d"/>
      <g id="Group_928" data-name="Group 928" transform="translate(34.666 33.587)" opacity="0.7">
        <path id="Path_2109" data-name="Path 2109" d="M274.665,170.8l-10.951.46c-2.417,2.669-13.065,2.543-12.568.534l-11.055.467a2.469,2.469,0,0,0-2.306,1.683c-3.411,11.6,3.351,43.2,3.351,43.2-4.048,6.206,9.8,4.753,24.468,2.84s7.867-6.087,7.867-6.087c-.956-15.059,1.817-35.405,2.61-41.522a1.372,1.372,0,0,0-1.416-1.572Z" transform="translate(-236.824 -170.798)" fill="#fff"/>
      </g>
      <path id="Path_2110" data-name="Path 2110" d="M256.939,134.11s-6.606.571-6.05,3.6,6.095.289,6.095.289Z" transform="translate(-205.785 -127.726)" fill="#263238"/>
      <path id="Path_2111" data-name="Path 2111" d="M266.014,154.43c-1.12,3.707-2.143,9.639-.608,13.287a3.1,3.1,0,0,1-1.075,3.01c-2.7,2.121-5.82,4.093-9.253,3.87-4.4-.289-4.738-3.589-3.707-5.339.282-.467,1.008-1.483,1.542-1.624,4.278-.912,4.664-3.8,4.2-7.051Z" transform="translate(-205.793 -132.98)" fill="#ff8b7b"/>
      <path id="Path_2112" data-name="Path 2112" d="M264.572,157.84l-5.272,3.611a14.472,14.472,0,0,1,.1,2.4,6.637,6.637,0,0,0,5.287-3.307C265.269,159.367,265.009,158.033,264.572,157.84Z" transform="translate(-207.969 -133.861)" opacity="0.2"/>
      <path id="Path_2113" data-name="Path 2113" d="M268.233,142.848c-1.342,5.7-1.846,9.1-5.257,11.552-5.138,3.707-11.789-.185-12.167-6.147-.341-5.413,1.913-13.791,7.941-15.111a7.978,7.978,0,0,1,9.528,6.036A8.074,8.074,0,0,1,268.233,142.848Z" transform="translate(-205.765 -127.426)" fill="#ff8b7b"/>
      <path id="Path_2114" data-name="Path 2114" d="M262.05,145.3c-.237.437-.667.682-.956.519s-.334-.645-.089-1.09.667-.682.957-.519S262.295,144.865,262.05,145.3Z" transform="translate(-208.368 -130.324)" fill="#263238"/>
      <path id="Path_2115" data-name="Path 2115" d="M254.867,143.222c-.245.445-.675.682-.964.526s-.334-.652-.089-1.1.667-.682.957-.519S255.1,142.762,254.867,143.222Z" transform="translate(-206.509 -129.787)" fill="#263238"/>
      <path id="Path_2116" data-name="Path 2116" d="M265.388,143.592a.3.3,0,0,1-.2-.237,2.343,2.343,0,0,0-1.2-1.772.3.3,0,0,1-.156-.393h0a.289.289,0,0,1,.386-.148h0a2.966,2.966,0,0,1,1.542,2.224.3.3,0,0,1-.245.341Z" transform="translate(-209.134 -129.511)" fill="#263238"/>
      <path id="Path_2117" data-name="Path 2117" d="M253.71,139.162a.3.3,0,0,1-.185-.378.319.319,0,0,1,.111-.148,2.966,2.966,0,0,1,2.662-.489.3.3,0,0,1,.178.378h0a.311.311,0,0,1-.386.171h0a2.358,2.358,0,0,0-2.106.386A.311.311,0,0,1,253.71,139.162Z" transform="translate(-206.471 -128.737)" fill="#263238"/>
      <path id="Path_2118" data-name="Path 2118" d="M255.433,144.91a15.57,15.57,0,0,1-3.433,2.5,2.514,2.514,0,0,0,1.72,1.216Z" transform="translate(-206.081 -130.518)" fill="#de5753"/>
      <path id="Path_2119" data-name="Path 2119" d="M254.3,152.324a46.384,46.384,0,0,1,7.941.1c-.83,1.535-2.224,2.729-5.19,2.514S254.3,152.324,254.3,152.324Z" transform="translate(-206.675 -132.409)" fill="#263238"/>
      <path id="Path_2120" data-name="Path 2120" d="M258.839,154.324a5.983,5.983,0,0,0-3.329.541,3.4,3.4,0,0,0,1.817.6,5.932,5.932,0,0,0,3.322-.549,3.314,3.314,0,0,0-1.809-.593Z" transform="translate(-206.989 -132.94)" fill="#de5753"/>
      <path id="Path_2121" data-name="Path 2121" d="M254.67,152.3a1.112,1.112,0,0,0,.83.845,34.657,34.657,0,0,0,5.19-.052,1.7,1.7,0,0,0,1.387-.69A53.685,53.685,0,0,0,254.67,152.3Z" transform="translate(-206.772 -132.408)" fill="#fff"/>
      <path id="Path_2122" data-name="Path 2122" d="M266.93,144.838a13.124,13.124,0,0,1-.875-6.362s-2.18-2.691-1.913-5c0,0-11.663.741-11.752-4.389s7.185-.052,7.185-.052.052-7.177,5.19-1.083c0,0,6.125.934,7.014,6.028,0,0,2.528-.378,2.039,4.137a23.32,23.32,0,0,1-4.649,7.415Z" transform="translate(-206.182 -125.5)" fill="#263238"/>
      <path id="Path_2123" data-name="Path 2123" d="M274.825,152.716A5.606,5.606,0,0,1,271,154.547c-1.95.082-2.491-1.765-1.579-3.374.816-1.483,2.81-3.24,4.59-2.565A2.486,2.486,0,0,1,274.825,152.716Z" transform="translate(-210.474 -131.436)" fill="#ff8b7b"/>
      <path id="Path_2124" data-name="Path 2124" d="M279.92,143s1.972-3.092,2.692-2.046S279.92,143,279.92,143Z" transform="translate(-213.3 -129.44)" fill="#263238"/>
      <path id="Path_2125" data-name="Path 2125" d="M253.255,171.754c-.356,1.483-.875,4.908,1.26,6.733,0,0,7.585-3.974,10.262-7.593a.853.853,0,0,1,1.209-.193l.652.5s.593,3.811-4.894,10.173a.5.5,0,0,1-.86-.163c-.423-1.335-1.831-3.455-6.421-1.8,0,0-3.1-1.023-4.656.69a.5.5,0,0,1-.868-.356,15.489,15.489,0,0,1,2.6-8.008l1.186-.445a.393.393,0,0,1,.526.46Z" transform="translate(-205.29 -137.142)" fill="#ffa31d"/>
      <path id="Path_2126" data-name="Path 2126" d="M246.06,232.933s10.944,1.409,19.73-1.253Z" transform="translate(-204.546 -152.951)" opacity="0.1"/>
      <path id="Path_2127" data-name="Path 2127" d="M283.941,183.54s-1.016,5.932,1.92,14.318c.3-4.352.7-8.519,1.1-12.138Z" transform="translate(-214.295 -140.505)" opacity="0.1"/>
      <path id="Path_2128" data-name="Path 2128" d="M287.952,171.567a11.093,11.093,0,0,0-3.774,13.235c3.27,8.49,14.7,34.53,14.7,34.53l5.813-1.483-7.059-23.675-9.684-22.644" transform="translate(-214.177 -137.4)" fill="#ffa31d"/>
      <path id="Path_2129" data-name="Path 2129" d="M287.952,171.567a11.093,11.093,0,0,0-3.774,13.235c3.27,8.49,14.7,34.53,14.7,34.53l5.813-1.483-7.059-23.675-9.684-22.644" transform="translate(-214.177 -137.4)" fill="#fff" opacity="0.7"/>
    </g>
  </g>
</svg>
