<svg id="logo_header" xmlns="http://www.w3.org/2000/svg" width="184" height="44" viewBox="0 0 184 44">
  <rect id="Rectangle_2" data-name="Rectangle 2" width="184" height="44" fill="none"/>
  <g id="Group_74" data-name="Group 74" transform="translate(3.676 2.757)">
    <g id="Group_18" data-name="Group 18" transform="translate(0)">
      <g id="Group_13" data-name="Group 13">
        <g id="Group_12" data-name="Group 12">
          <path id="Path_4" data-name="Path 4" d="M33.2,45.129h4.711c.705,0,.8.14.53.778a2.311,2.311,0,0,0,.467,2.768,3.448,3.448,0,0,0,2.171.828,5.2,5.2,0,0,0,3.113-.738c1.068-.6,2.153-1.163,3.225-1.751a.461.461,0,0,1,.683.111c2.9,3.422,5.807,6.846,8.744,10.243a1.551,1.551,0,0,1-.756,2.61,1.786,1.786,0,0,1-1.688-.545,1.57,1.57,0,0,1-.931,1.72,1.731,1.731,0,0,1-2-.443,1.6,1.6,0,0,1-.926,1.727,1.68,1.68,0,0,1-1.941-.388c-.132.108-.067.233-.072.339A1.624,1.624,0,0,1,46.29,63.75c-.24-.1-.274-.2-.145-.415a2.695,2.695,0,0,0-1.663-4.064.679.679,0,0,1-.436-.284,2.432,2.432,0,0,0-1.224-.914.592.592,0,0,1-.37-.351,2.666,2.666,0,0,0-1.617-1.538A.46.46,0,0,1,40.5,55.9a2.9,2.9,0,0,0-4.923-.653c-.327.379-.59.879-1.01,1.1a3.62,3.62,0,0,1-1.553.062c-1.15.009-2.3.006-3.45,0a1.892,1.892,0,0,1-2.016-1.742,18.314,18.314,0,0,1,1.24-9.4,19.217,19.217,0,0,1,8.451-9.53,20.281,20.281,0,0,1,6.731-2.409,20.992,20.992,0,0,1,7.111.007A20.084,20.084,0,0,1,58.515,36.2c.254.161.39.144.546-.1a8.588,8.588,0,0,1,.572-.776.621.621,0,0,1,1.142.148q1.1,2.707,2.17,5.423c.195.493-.1.886-.653.862-1.685-.071-3.37-.162-5.054-.245-.305-.015-.611-.024-.917-.036a.709.709,0,0,1-.667-.356.618.618,0,0,1,.142-.715c.183-.235.356-.479.557-.7.168-.185.155-.276-.07-.416a15.541,15.541,0,0,0-4.93-2.03,16.463,16.463,0,0,0-14.219,3.143,14.319,14.319,0,0,0-3.86,4.563C33.251,45,33.239,45.04,33.2,45.129Z" transform="translate(-27.397 -33.026)" fill="#ffa31d"/>
          <g id="Group_11" data-name="Group 11" transform="translate(3.924 8.391)">
            <g id="Group_10" data-name="Group 10">
              <g id="Group_8" data-name="Group 8">
                <path id="Path_5" data-name="Path 5" d="M48.194,88.427a16.669,16.669,0,0,0,21.262-1.491,14.757,14.757,0,0,0,3.986-6.482c.087-.283.027-.33-.26-.325-.856.016-1.713.02-2.569,0a1.661,1.661,0,0,0-1.229.441c-.3.271-.385.253-.646-.052L59.3,69.463c-.484-.567-.781-.624-1.452-.264q-2.065,1.107-4.127,2.218a3.4,3.4,0,0,1-2.993.212A.918.918,0,0,1,50.473,70c1.758-1.308,3.511-2.624,5.311-3.877a5.341,5.341,0,0,1,5.186-.552c2.653.991,5.316,1.957,7.971,2.942a5.718,5.718,0,0,0,2.041.359c1.358-.007,2.716,0,4.073,0a1.923,1.923,0,0,1,2.093,1.469,18.437,18.437,0,0,1-.471,12.7,19.119,19.119,0,0,1-7.13,8.789,20.09,20.09,0,0,1-8.74,3.329,20.563,20.563,0,0,1-11.532-1.7A17.168,17.168,0,0,1,46,91.531c-.2-.153-.329-.2-.5.046-.18.264-.42.489-.613.745a.687.687,0,0,1-.692.3c-.3-.042-.415-.265-.5-.505q-.773-2.293-1.54-4.589c-.094-.279-.19-.557-.282-.837-.19-.58.114-.949.752-.893.67.059,1.337.134,2.006.2,1.313.133,2.627.258,3.938.4.636.07.826.534.437,1.028C48.745,87.764,48.468,88.092,48.194,88.427Z" transform="translate(-41.821 -65.149)" fill="#fff"/>
              </g>
              <g id="Group_9" data-name="Group 9" transform="translate(4.087 14.101)">
                <path id="Path_6" data-name="Path 6" d="M62.642,122.312c.069.183-.194.417-.039.571s.405-.051.624-.043a1.372,1.372,0,0,1,1.317,1.155c.02.208.029.277.288.213a1.308,1.308,0,0,1,1.436.459,1.272,1.272,0,0,1,.112,1.489,2.122,2.122,0,0,1-.617.818,1.438,1.438,0,0,1-2.164-.732c-.071-.22-.14-.24-.352-.174a1.42,1.42,0,0,1-1.895-1.244c-.018-.253-.1-.252-.313-.193a1.468,1.468,0,0,1-1.907-1.376c0-.212.007-.294-.261-.2a1.533,1.533,0,0,1-1.795-.592,1.257,1.257,0,0,1,.143-1.624c.369-.438.737-.877,1.124-1.3a1.4,1.4,0,0,1,1.676-.239,1.289,1.289,0,0,1,.566,1.566c-.03.08-.143.163-.047.252s.182-.014.269-.041A1.354,1.354,0,0,1,62.642,122.312Z" transform="translate(-56.844 -119.127)" fill="#fff"/>
              </g>
            </g>
          </g>
        </g>
      </g>
    </g>
    <g id="Group_73" data-name="Group 73" transform="translate(52.239 0)">
      <g id="Group_71" data-name="Group 71" transform="translate(0 28.44)">
        <g id="Group_14" data-name="Group 14">
          <path id="Path_7" data-name="Path 7" d="M64.913,235.657H61.878l-1.691,8.4H58.872l1.691-8.4H57.527l.246-1.165h7.386Z" transform="translate(-57.527 -234.034)" fill="#fff"/>
          <path id="Path_8" data-name="Path 8" d="M70.613,237.618l-.434,1.138a2.146,2.146,0,0,0-.94-.222c-1.345,0-2.154,1.374-2.5,3.081l-.476,2.374H64.99l1.315-6.482h1.272l-.3,1.471a2.454,2.454,0,0,1,2.226-1.609A2.271,2.271,0,0,1,70.613,237.618Z" transform="translate(-57.038 -233.967)" fill="#fff"/>
          <path id="Path_9" data-name="Path 9" d="M79.971,237.506l-1.3,6.482H77.413l.188-1.027a3.451,3.451,0,0,1-2.631,1.167,2.616,2.616,0,0,1-2.688-3.387,4.174,4.174,0,0,1,4.047-3.372,2.183,2.183,0,0,1,2.183,1.152l.2-1.014Zm-1.908,3.22a1.779,1.779,0,0,0-1.85-2.22,2.77,2.77,0,0,0-2.66,2.22,1.754,1.754,0,0,0,1.749,2.263A2.868,2.868,0,0,0,78.063,240.726Z" transform="translate(-56.565 -233.967)" fill="#fff"/>
          <path id="Path_10" data-name="Path 10" d="M90.977,234.044l-2.023,10.021H87.7l.188-1.027a3.451,3.451,0,0,1-2.631,1.167,2.616,2.616,0,0,1-2.688-3.387,4.175,4.175,0,0,1,4.047-3.372A2.183,2.183,0,0,1,88.8,238.6l.925-4.553ZM88.347,240.8a1.779,1.779,0,0,0-1.85-2.22,2.77,2.77,0,0,0-2.66,2.22,1.754,1.754,0,0,0,1.75,2.263A2.867,2.867,0,0,0,88.347,240.8Z" transform="translate(-55.891 -234.044)" fill="#fff"/>
          <path id="Path_11" data-name="Path 11" d="M99.514,241.268H94.021c-.029,1.152.709,1.721,1.865,1.721A2.743,2.743,0,0,0,98.054,242l1.026.418a4.337,4.337,0,0,1-3.468,1.707,2.647,2.647,0,0,1-2.776-3.4,4.211,4.211,0,0,1,4.148-3.358,2.556,2.556,0,0,1,2.673,3.358A3.646,3.646,0,0,1,99.514,241.268ZM98.5,240.227a1.546,1.546,0,0,0-1.749-1.721,2.512,2.512,0,0,0-2.5,1.721Z" transform="translate(-55.218 -233.967)" fill="#fff"/>
          <path id="Path_12" data-name="Path 12" d="M108.25,239.3a6.374,6.374,0,0,1,6.043-4.9,4,4,0,0,1,3.425,1.624l-1.112.778a2.978,2.978,0,0,0-2.53-1.235,4.805,4.805,0,0,0-4.509,3.732,2.954,2.954,0,0,0,2.977,3.734,4.614,4.614,0,0,0,3.05-1.235l.795.778a6.066,6.066,0,0,1-4.076,1.624A3.936,3.936,0,0,1,108.25,239.3Z" transform="translate(-54.209 -234.036)" fill="#fff"/>
          <path id="Path_13" data-name="Path 13" d="M126.942,237.506l-1.3,6.482h-1.258l.189-1.027a3.451,3.451,0,0,1-2.631,1.167,2.616,2.616,0,0,1-2.688-3.387,4.174,4.174,0,0,1,4.047-3.372,2.18,2.18,0,0,1,2.182,1.152l.2-1.014Zm-1.907,3.22a1.779,1.779,0,0,0-1.851-2.22,2.771,2.771,0,0,0-2.66,2.22,1.755,1.755,0,0,0,1.75,2.263A2.869,2.869,0,0,0,125.035,240.726Z" transform="translate(-53.487 -233.967)" fill="#fff"/>
          <path id="Path_14" data-name="Path 14" d="M129.195,242.059h1.171c-.087.556.332,1.013,1.156,1.013.852,0,1.416-.374,1.531-.9.1-.486-.245-.721-.765-.846l-.867-.209c-1.07-.29-1.6-.818-1.4-1.859a2.626,2.626,0,0,1,2.688-1.888c1.142,0,2.211.582,1.951,1.888h-1.214c.086-.5-.376-.833-.911-.833a1.228,1.228,0,0,0-1.271.874c-.088.444.3.68.707.778l.954.236c1.33.332,1.518,1.138,1.373,1.873a2.9,2.9,0,0,1-3.006,1.943C130.076,244.127,128.992,243.391,129.195,242.059Z" transform="translate(-52.832 -233.967)" fill="#fff"/>
          <path id="Path_15" data-name="Path 15" d="M144.26,240.318l-.752,3.747H142.25l.737-3.677c.217-1.084-.332-1.749-1.272-1.749a2.418,2.418,0,0,0-2.456,1.914l-.709,3.512h-1.258l2.025-10.021h1.257l-.91,4.525a3.24,3.24,0,0,1,2.471-1.124C143.812,237.445,144.65,238.5,144.26,240.318Z" transform="translate(-52.299 -234.044)" fill="#fff"/>
          <path id="Path_16" data-name="Path 16" d="M149.154,234.044h1.257l-2.024,10.021h-1.258Z" transform="translate(-51.655 -234.044)" fill="#fff"/>
          <path id="Path_17" data-name="Path 17" d="M159.253,241.268h-5.492c-.03,1.152.708,1.721,1.864,1.721a2.741,2.741,0,0,0,2.168-.986l1.026.418a4.333,4.333,0,0,1-3.468,1.707,2.647,2.647,0,0,1-2.776-3.4,4.211,4.211,0,0,1,4.148-3.358,2.557,2.557,0,0,1,2.674,3.358A3.651,3.651,0,0,1,159.253,241.268Zm-1.011-1.042a1.547,1.547,0,0,0-1.75-1.721,2.512,2.512,0,0,0-2.5,1.721Z" transform="translate(-51.303 -233.967)" fill="#fff"/>
          <path id="Path_18" data-name="Path 18" d="M161.852,242.059h1.17c-.086.556.333,1.013,1.157,1.013.852,0,1.416-.374,1.531-.9.1-.486-.245-.721-.766-.846l-.867-.209c-1.069-.29-1.6-.818-1.4-1.859a2.626,2.626,0,0,1,2.688-1.888c1.141,0,2.211.582,1.951,1.888H166.1c.087-.5-.375-.833-.91-.833a1.229,1.229,0,0,0-1.272.874c-.086.444.3.68.709.778l.954.236c1.33.332,1.517,1.138,1.374,1.873a2.9,2.9,0,0,1-3.007,1.943C162.734,244.127,161.65,243.391,161.852,242.059Z" transform="translate(-50.691 -233.967)" fill="#fff"/>
          <path id="Path_19" data-name="Path 19" d="M169.8,242.059h1.171c-.087.556.333,1.013,1.156,1.013.854,0,1.416-.374,1.532-.9.1-.486-.246-.721-.766-.846l-.867-.209c-1.07-.29-1.6-.818-1.4-1.859a2.627,2.627,0,0,1,2.689-1.888c1.141,0,2.211.582,1.951,1.888h-1.215c.087-.5-.375-.833-.91-.833a1.228,1.228,0,0,0-1.272.874c-.086.444.3.68.708.778l.954.236c1.33.332,1.517,1.138,1.374,1.873a2.9,2.9,0,0,1-3.007,1.943C170.684,244.127,169.6,243.391,169.8,242.059Z" transform="translate(-50.17 -233.967)" fill="#fff"/>
        </g>
      </g>
      <g id="Group_72" data-name="Group 72">
        <g id="Group_16" data-name="Group 16">
          <path id="Path_20" data-name="Path 20" d="M28.739,198.059h8.737c6.374,0,10.1,4.661,10.1,10.751,0,6.059-3.722,10.657-10.1,10.657H28.739Zm8.737,18.021c4.044,0,6.115-3.293,6.115-7.271,0-4.008-2.071-7.363-6.115-7.363H32.688V216.08Z" transform="translate(-28.739 -197.189)" fill="#fff"/>
          <path id="Path_21" data-name="Path 21" d="M70.241,206.386V220.9H66.487v-1.957a6.1,6.1,0,0,1-5.015,2.268,7.567,7.567,0,0,1-.033-15.131,6.145,6.145,0,0,1,5.048,2.238v-1.926Zm-3.818,7.208a4.26,4.26,0,0,0-4.369-4.164,4.131,4.131,0,0,0-4.239,4.164,4.183,4.183,0,0,0,4.239,4.225A4.234,4.234,0,0,0,66.423,213.595Z" transform="translate(-32.387 -198.618)" fill="#fff"/>
          <path id="Path_22" data-name="Path 22" d="M93.339,206.386V220.9H89.585v-1.957a6.1,6.1,0,0,1-5.016,2.268,7.567,7.567,0,0,1-.033-15.131,6.145,6.145,0,0,1,5.048,2.238v-1.926Zm-3.818,7.208a4.259,4.259,0,0,0-4.369-4.164,4.131,4.131,0,0,0-4.239,4.164,4.183,4.183,0,0,0,4.239,4.225A4.234,4.234,0,0,0,89.52,213.595Z" transform="translate(-35.718 -198.618)" fill="#fff"/>
          <path id="Path_23" data-name="Path 23" d="M110.927,219.278l-5.889-6.587v6.587h-3.753V197h3.753v12.4l4.336-4.629h4.886l-6.148,6.338,7.572,8.171Z" transform="translate(-39.203 -197)" fill="#fff"/>
          <path id="Path_24" data-name="Path 24" d="M133.784,214.9H122.1c.421,2.019,2.038,3.045,4.271,3.045a5.116,5.116,0,0,0,4.109-1.8l2.491,1.833a8.034,8.034,0,0,1-6.795,3.231c-4.53,0-7.959-3.044-7.959-7.58,0-4.63,3.623-7.551,7.927-7.551,4.336,0,7.734,2.89,7.734,7.426A11.782,11.782,0,0,1,133.784,214.9Zm-3.657-2.517c-.227-1.989-1.812-3.138-3.915-3.138a3.79,3.79,0,0,0-4.109,3.138Z" transform="translate(-41.645 -198.618)" fill="#fff"/>
          <path id="Path_25" data-name="Path 25" d="M139.313,216.36h3.527c0,.994.906,1.926,2.492,1.926,1.488,0,2.459-.653,2.459-1.584,0-.808-.647-1.181-1.779-1.43l-2.007-.5c-3.4-.87-4.271-2.611-4.271-4.444,0-2.268,2.329-4.257,5.63-4.257,2.685,0,5.728,1.274,5.7,4.537h-3.592a1.8,1.8,0,0,0-2.006-1.647c-1.165,0-1.974.621-1.974,1.522,0,.746.745,1.181,1.618,1.367l2.426.621c3.4.839,4.013,2.89,4.013,4.226,0,2.952-3.074,4.5-6.148,4.5C142.388,221.206,139.378,219.467,139.313,216.36Z" transform="translate(-44.688 -198.618)" fill="#fff"/>
          <path id="Path_26" data-name="Path 26" d="M172.182,211.138v8.14h-3.753v-7.8c0-2.3-1.456-3.48-3.138-3.48a3.546,3.546,0,0,0-3.851,3.7v7.581h-3.753V197h3.753v9.974c.744-1.74,3.171-2.517,4.692-2.517C170.014,204.457,172.182,206.912,172.182,211.138Z" transform="translate(-47.338 -197)" fill="#fff"/>
        </g>
      </g>
    </g>
  </g>
</svg>
