<svg xmlns="http://www.w3.org/2000/svg" width="174.832" height="70" viewBox="0 0 174.832 70"><g transform="translate(967.416 -3241)"><g transform="translate(-832.74 3257.7)"><path d="M33.2,45.129h4.711c.705,0,.8.14.53.778a2.311,2.311,0,0,0,.467,2.768,3.448,3.448,0,0,0,2.171.828,5.2,5.2,0,0,0,3.113-.738c1.068-.6,2.153-1.163,3.225-1.751a.461.461,0,0,1,.683.111c2.9,3.422,5.807,6.846,8.744,10.243a1.551,1.551,0,0,1-.756,2.61,1.786,1.786,0,0,1-1.688-.545,1.57,1.57,0,0,1-.931,1.72,1.731,1.731,0,0,1-2-.443,1.6,1.6,0,0,1-.926,1.727,1.68,1.68,0,0,1-1.941-.388c-.132.108-.067.233-.072.339A1.624,1.624,0,0,1,46.29,63.75c-.24-.1-.274-.2-.145-.415a2.695,2.695,0,0,0-1.663-4.064.679.679,0,0,1-.436-.284,2.432,2.432,0,0,0-1.224-.914.592.592,0,0,1-.37-.351,2.666,2.666,0,0,0-1.617-1.538A.46.46,0,0,1,40.5,55.9a2.9,2.9,0,0,0-4.923-.653c-.327.379-.59.879-1.01,1.1a3.62,3.62,0,0,1-1.553.062c-1.15.009-2.3.006-3.45,0a1.892,1.892,0,0,1-2.016-1.742,18.314,18.314,0,0,1,1.24-9.4,19.217,19.217,0,0,1,8.451-9.53,20.281,20.281,0,0,1,6.731-2.409,20.992,20.992,0,0,1,7.111.007A20.084,20.084,0,0,1,58.515,36.2c.254.161.39.144.546-.1a8.588,8.588,0,0,1,.572-.776.621.621,0,0,1,1.142.148q1.1,2.707,2.17,5.423c.195.493-.1.886-.653.862-1.685-.071-3.37-.162-5.054-.245-.305-.015-.611-.024-.917-.036a.709.709,0,0,1-.667-.356.618.618,0,0,1,.142-.715c.183-.235.356-.479.557-.7.168-.185.155-.276-.07-.416a15.541,15.541,0,0,0-4.93-2.03,16.463,16.463,0,0,0-14.219,3.143,14.319,14.319,0,0,0-3.86,4.563C33.251,45,33.239,45.04,33.2,45.129Z" transform="translate(-27.397 -33.026)" fill="#ffa31d"/><g transform="translate(3.924 8.391)"><path d="M48.194,88.427a16.669,16.669,0,0,0,21.262-1.491,14.757,14.757,0,0,0,3.986-6.482c.087-.283.027-.33-.26-.325-.856.016-1.713.02-2.569,0a1.661,1.661,0,0,0-1.229.441c-.3.271-.385.253-.646-.052L59.3,69.463c-.484-.567-.781-.624-1.452-.264q-2.065,1.107-4.127,2.218a3.4,3.4,0,0,1-2.993.212A.918.918,0,0,1,50.473,70c1.758-1.308,3.511-2.624,5.311-3.877a5.341,5.341,0,0,1,5.186-.552c2.653.991,5.316,1.957,7.971,2.942a5.718,5.718,0,0,0,2.041.359c1.358-.007,2.716,0,4.073,0a1.923,1.923,0,0,1,2.093,1.469,18.437,18.437,0,0,1-.471,12.7,19.119,19.119,0,0,1-7.13,8.789,20.09,20.09,0,0,1-8.74,3.329,20.563,20.563,0,0,1-11.532-1.7A17.168,17.168,0,0,1,46,91.531c-.2-.153-.329-.2-.5.046-.18.264-.42.489-.613.745a.687.687,0,0,1-.692.3c-.3-.042-.415-.265-.5-.505q-.773-2.293-1.54-4.589c-.094-.279-.19-.557-.282-.837-.19-.58.114-.949.752-.893.67.059,1.337.134,2.006.2,1.313.133,2.627.258,3.938.4.636.07.826.534.437,1.028C48.745,87.764,48.468,88.092,48.194,88.427Z" transform="translate(-41.821 -65.149)" fill="#fff"/><g transform="translate(4.087 14.101)"><path d="M62.642,122.312c.069.183-.194.417-.039.571s.405-.051.624-.043a1.372,1.372,0,0,1,1.317,1.155c.02.208.029.277.288.213a1.308,1.308,0,0,1,1.436.459,1.272,1.272,0,0,1,.112,1.489,2.122,2.122,0,0,1-.617.818,1.438,1.438,0,0,1-2.164-.732c-.071-.22-.14-.24-.352-.174a1.42,1.42,0,0,1-1.895-1.244c-.018-.253-.1-.252-.313-.193a1.468,1.468,0,0,1-1.907-1.376c0-.212.007-.294-.261-.2a1.533,1.533,0,0,1-1.795-.592,1.257,1.257,0,0,1,.143-1.624c.369-.438.737-.877,1.124-1.3a1.4,1.4,0,0,1,1.676-.239,1.289,1.289,0,0,1,.566,1.566c-.03.08-.143.163-.047.252s.182-.014.269-.041A1.354,1.354,0,0,1,62.642,122.312Z" transform="translate(-56.844 -119.127)" fill="#fff"/></g></g></g><text transform="translate(-967.416 3281)" fill="#fff" font-size="39" font-family="Tajawal-Medium, Tajawal" font-weight="500"><tspan x="0" y="0">داكــــــش</tspan></text><text transform="translate(-960.416 3306)" fill="#fff" font-size="21" font-family="TimesNewRomanPSMT, Times New Roman"><tspan x="0" y="0">بـــــدل بــبــــلاش</tspan></text></g></svg>