<svg xmlns="http://www.w3.org/2000/svg" width="24" height="18.667" viewBox="0 0 24 18.667">
  <path id="Icon_awesome-credit-card" data-name="Icon awesome-credit-card" d="M0,18.917a2,2,0,0,0,2,2H22a2,2,0,0,0,2-2V11.583H0Zm8-2.833a.5.5,0,0,1,.5-.5h5.667a.5.5,0,0,1,.5.5V17.75a.5.5,0,0,1-.5.5H8.5a.5.5,0,0,1-.5-.5Zm-5.333,0a.5.5,0,0,1,.5-.5h3a.5.5,0,0,1,.5.5V17.75a.5.5,0,0,1-.5.5h-3a.5.5,0,0,1-.5-.5ZM24,4.25v2H0v-2a2,2,0,0,1,2-2H22A2,2,0,0,1,24,4.25Z" transform="translate(0 -2.25)" fill="#222f3e"/>
</svg>
