<svg xmlns="http://www.w3.org/2000/svg" width="30.571" height="26.75" viewBox="0 0 30.571 26.75">
  <path id="Icon_awesome-sort-amount-down-alt" data-name="Icon awesome-sort-amount-down-alt" d="M14.33,6.071h3.821a.955.955,0,0,0,.955-.955V3.205a.955.955,0,0,0-.955-.955H14.33a.955.955,0,0,0-.955.955V5.116A.955.955,0,0,0,14.33,6.071Zm0,7.643h7.643a.955.955,0,0,0,.955-.955V10.848a.955.955,0,0,0-.955-.955H14.33a.955.955,0,0,0-.955.955v1.911A.955.955,0,0,0,14.33,13.714ZM29.616,25.179H14.33a.955.955,0,0,0-.955.955v1.911A.955.955,0,0,0,14.33,29H29.616a.955.955,0,0,0,.955-.955V26.134A.955.955,0,0,0,29.616,25.179ZM14.33,21.357H25.795a.955.955,0,0,0,.955-.955V18.491a.955.955,0,0,0-.955-.955H14.33a.955.955,0,0,0-.955.955V20.4A.955.955,0,0,0,14.33,21.357Zm-3.821,0H7.643V3.205a.955.955,0,0,0-.955-.955H4.777a.955.955,0,0,0-.955.955V21.357H.955a.956.956,0,0,0-.674,1.631L5.058,28.72a.955.955,0,0,0,1.351,0l4.777-5.732A.957.957,0,0,0,10.509,21.357Z" transform="translate(0 -2.25)" fill="#232f3e"/>
</svg>
